<?xml version="1.0" encoding="utf-8"?>
<!-- Generator: Adobe Illustrator 26.0.2, SVG Export Plug-In . SVG Version: 6.00 Build 0)  -->
<svg version="1.1" id="Layer_1" xmlns="http://www.w3.org/2000/svg" xmlns:xlink="http://www.w3.org/1999/xlink" x="0px" y="0px"
	 viewBox="0 0 368 204" style="enable-background:new 0 0 368 204;" xml:space="preserve">
<style type="text/css">
	.st0{fill:#FFCD00;}
	.st1{fill:#0091DA;}
	.st2{fill:#93C90F;}
</style>
<g>
	<path style="fill:#FFFFFF;" d="M141.31,136.09h-8.48v31.19h-6.14v-31.19h-7.44v-5.69h7.44v-13.07h6.14v13.07h8.48V136.09z M199.55,130.38
		c-3.26,0-7.62,0.8-9.91,4.02v-3.12h-6.03v36h6.03v-20.75c0-6.88,4.7-9.65,9.91-9.88V130.38z M83.32,167.29h-6.79l-7.31-15.3H50.21
		l-7.24,15.3H36l23.8-50.3L83.32,167.29z M59.79,131.75l-6.69,14.14h13.35L59.79,131.75z M104.24,130.4
		c-4.98,0-8.94,2.15-12.09,5.61v-4.73h-6.04v36h6.04v-13.42c0-4.45,0.2-7.53,0.61-9.15c1.23-4.76,5.52-8.62,10.6-8.62
		c6.52,0,8.33,4.3,8.33,13.82v17.38h6.04v-17.38C117.72,137.9,114.3,130.4,104.24,130.4z M148.04,150.44
		c0.42,6.3,4.82,12.04,12.13,12.04c6.21,0,10.15-3.4,12.8-8.48l5.11,2.68c-3.62,7.89-10.03,11.48-17.53,11.48
		c-11.21,0-18.71-8.65-18.71-18.79c0-11.61,8.85-18.98,18.46-18.98c12.48,0,18.65,9.68,18.65,20.04H148.04z M172.21,145
		c-0.82-3.63-4.56-8.75-11.85-8.75c-5.47,0-9.66,2.94-11.63,8.75H172.21z M204.08,167.29h6.04v-36h-6.04V167.29z M211.52,121.45
		c0,2.46-1.99,4.46-4.44,4.46c-2.45,0-4.44-2-4.44-4.46s1.99-4.46,4.44-4.46C209.53,116.99,211.52,118.99,211.52,121.45z
		 M232.91,136.28c-7.08,0-12.82,5.87-12.82,13.1c0,7.24,5.74,13.1,12.82,13.1c7.4,0,12.82-5.55,12.82-13.1
		C245.73,141.83,240.31,136.28,232.91,136.28z M245.44,131.29h5.97v36h-5.97v-4.62c-3.12,3-7.15,5.5-12.56,5.5
		c-10.77,0-18.89-8.45-18.89-18.88c0-10.43,8.11-18.89,18.89-18.89c5.04,0,9.79,2.44,12.56,5.72V131.29z M274.5,136.28
		c-7.08,0-12.82,5.87-12.82,13.1c0,7.24,5.74,13.1,12.82,13.1c7.4,0,12.82-5.55,12.82-13.1
		C287.31,141.83,281.89,136.28,274.5,136.28z M287.03,117.34H293v49.95h-5.97v-4.62c-3.12,3-7.15,5.5-12.56,5.5
		c-10.77,0-18.88-8.45-18.88-18.88c0-10.43,8.11-18.89,18.88-18.89c5.04,0,9.79,2.44,12.56,5.72V117.34z"/>
	<g>
		<path class="st0" d="M251.42,117.34c0-11.81,2.52-23.03,7.05-33.15c-9.32-10.83-23.13-17.68-38.53-17.68v19.35
			C237.32,85.85,251.42,99.94,251.42,117.34z"/>
		<path class="st1" d="M332.75,55.35V36c-33.11,0-61.6,19.79-74.29,48.18c7.67,8.9,12.3,20.49,12.3,33.15
			C270.76,83.1,298.52,55.35,332.75,55.35z"/>
		<path class="st2" d="M270.76,117.34c0-12.67-4.63-24.25-12.3-33.15c-4.53,10.13-7.05,21.35-7.05,33.15H270.76z"/>
	</g>
</g>
</svg>
