<svg width="843" height="162" viewBox="0 0 843 162" fill="none" xmlns="http://www.w3.org/2000/svg">
<mask id="path-1-outside-1_105_34" maskUnits="userSpaceOnUse" x="0" y="0" width="162" height="162" fill="black">
<rect fill="white" width="162" height="162"/>
<path d="M104.331 11.6045C104.884 12.0013 105.39 12.4201 105.897 12.8744C106.066 13.0195 106.233 13.1618 106.409 13.3096C107.931 14.6972 109.31 16.7719 109.505 18.8766C109.653 24.137 109.653 24.137 108.36 26.2855C108.155 26.6331 108.155 26.6331 107.944 26.9862C107.074 28.2863 105.921 29.34 104.813 30.4348C104.432 30.8125 104.054 31.1929 103.674 31.5706C103.266 31.9757 102.861 32.378 102.453 32.7831C101.602 33.6261 100.753 34.4718 99.9046 35.3148C98.1061 37.1102 96.3048 38.9002 94.5036 40.6902C92.5546 42.6252 90.6083 44.5603 88.6647 46.498C87.8216 47.3383 86.9757 48.1785 86.1326 49.016C85.7329 49.4102 85.336 49.807 84.9363 50.2039C84.4518 50.6856 83.9673 51.1673 83.48 51.649C83.2665 51.8625 83.053 52.076 82.834 52.2949C82.5548 52.5714 82.5548 52.5714 82.2701 52.856C81.1943 54.0849 81.1423 55.1605 81.1724 56.7507C81.2956 57.7853 81.6542 58.371 82.355 59.1291C83.2145 59.6683 83.9153 59.7668 84.9226 59.7805C85.1717 59.7887 85.4236 59.797 85.6809 59.8052C87.4986 59.5096 88.7304 58.0125 89.9458 56.737C90.2989 56.373 90.6521 56.0117 91.0079 55.6477C91.5582 55.0812 92.1056 54.5146 92.6504 53.9426C97.679 48.6931 97.679 48.6931 101.525 48.392C104.84 48.3209 107.509 48.9531 110.003 51.1919C110.173 51.337 110.34 51.4793 110.515 51.6271C112.037 53.0148 113.416 55.0894 113.611 57.1941C113.72 61.1052 113.449 63.9736 110.687 66.9952C110.43 67.2552 110.167 67.5152 109.904 67.7725C109.762 67.9175 109.617 68.0626 109.466 68.2104C108.987 68.6921 108.503 69.1683 108.018 69.6473C107.673 69.9922 107.326 70.3397 106.978 70.6846C106.233 71.4263 105.489 72.168 104.742 72.9098C103.562 74.0812 102.382 75.2553 101.205 76.4295C98.2785 79.3444 95.3522 82.2565 92.4204 85.1686C90.1429 87.4348 87.8681 89.6983 85.5933 91.9672C84.4217 93.1332 83.2501 94.2991 82.0757 95.4624C81.3448 96.1877 80.6167 96.9129 79.8885 97.641C79.5518 97.9776 79.2151 98.3143 78.8757 98.6482C78.4131 99.1053 77.9504 99.5651 77.4905 100.028C77.3564 100.159 77.2223 100.29 77.0854 100.424C75.9576 101.563 75.1227 102.786 75.1199 104.426C75.1665 105.658 75.495 106.375 76.3326 107.3C77.5343 108.102 78.4623 108.296 79.8913 108.121C81.7281 107.469 82.9763 106.282 84.3177 104.91C84.5339 104.697 84.7474 104.483 84.9664 104.262C85.6809 103.545 86.3926 102.825 87.1044 102.105C87.6163 101.59 88.1282 101.073 88.6428 100.559C89.746 99.4501 90.8464 98.3416 91.9469 97.2304C93.54 95.6211 95.1387 94.0145 96.7374 92.4106C99.3324 89.8023 101.928 87.194 104.523 84.5829C104.676 84.4269 104.832 84.2709 104.991 84.1094C106.721 82.3687 108.451 80.628 110.178 78.8873C110.805 78.2551 111.432 77.6228 112.059 76.9933C112.212 76.8373 112.365 76.6813 112.527 76.5198C115.108 73.9197 117.692 71.3223 120.279 68.7249C121.875 67.1265 123.466 65.5254 125.053 63.9188C126.14 62.8186 127.232 61.721 128.327 60.6235C128.957 59.994 129.586 59.359 130.211 58.7241C136.268 52.5741 136.268 52.5741 140.799 52.4756C143.75 52.5029 146.131 53.3268 148.327 55.2974C148.497 55.4424 148.664 55.5848 148.839 55.7326C150.361 57.1202 151.74 59.1948 151.935 61.2996C152.083 66.56 152.083 66.56 150.79 68.7085C150.656 68.9384 150.519 69.1683 150.383 69.4037C149.485 70.7421 148.288 71.8204 147.147 72.9453C146.887 73.2026 146.627 73.4626 146.367 73.7199C145.808 74.2755 145.247 74.8311 144.689 75.384C143.802 76.2598 142.918 77.1384 142.033 78.0169C139.523 80.5158 137.008 83.0119 134.489 85.5025C133.099 86.882 131.708 88.2614 130.32 89.6436C129.441 90.5167 128.563 91.3897 127.681 92.2574C127.134 92.7993 126.586 93.3439 126.041 93.8886C125.669 94.2608 125.294 94.6276 124.919 94.9943C123.594 96.3245 122.453 97.4768 122.264 99.4255C122.461 100.728 122.828 101.612 123.69 102.647C124.911 103.397 126.135 103.463 127.522 103.194C128.393 102.688 129.028 102.012 129.712 101.278C132.422 98.484 134.771 96.3792 138.814 96.2342C142.023 96.319 144.9 97.3782 147.224 99.6061C149.63 102.198 150.41 105.077 150.347 108.575C149.961 111.98 147.741 114.536 145.411 116.871C145.236 117.046 145.061 117.224 144.883 117.405C144.311 117.982 143.739 118.557 143.167 119.132C142.764 119.537 142.362 119.939 141.962 120.344C141.122 121.19 140.279 122.033 139.438 122.873C138.365 123.949 137.295 125.027 136.227 126.108C135.401 126.943 134.571 127.775 133.739 128.607C133.345 129.004 132.951 129.401 132.557 129.8C129.296 133.104 126.468 135.414 121.673 135.594C118.464 135.532 116.151 134.226 113.904 132.009C111.741 129.642 110.964 126.891 111.032 123.727C111.328 120.09 113.384 117.427 115.957 114.999C116.373 114.602 116.789 114.202 117.202 113.803C117.383 113.63 117.566 113.461 117.753 113.283C118.664 112.284 118.889 111.427 118.85 110.064C118.694 109.021 118.303 108.425 117.668 107.573C116.603 106.823 115.683 106.657 114.418 106.618C112.779 107.001 111.544 108.422 110.405 109.582C110.233 109.755 110.06 109.927 109.882 110.105C109.308 110.685 108.733 111.266 108.161 111.846C107.747 112.262 107.334 112.678 106.921 113.094C106.031 113.989 105.141 114.884 104.254 115.779C102.85 117.197 101.44 118.612 100.033 120.027C96.0284 124.047 92.0263 128.073 88.0296 132.102C85.8205 134.33 83.6087 136.552 81.3941 138.775C80.2252 139.949 79.0564 141.123 77.8902 142.303C76.7925 143.414 75.6921 144.52 74.5889 145.623C74.1865 146.028 73.7841 146.433 73.3844 146.841C70.3459 149.931 67.7535 151.962 63.2806 152C61.3808 152.005 59.8971 151.874 58.2656 150.817C57.9892 150.661 57.7127 150.503 57.428 150.339C54.8959 148.401 53.1056 146.083 52.5171 142.88C52.2679 140.22 52.5034 137.825 53.8858 135.49C55.572 133.462 57.4581 131.615 59.3305 129.762C59.8178 129.28 60.3023 128.801 60.7841 128.32C62.1582 126.951 63.5352 125.585 64.9094 124.222C65.758 123.382 66.6038 122.542 67.4497 121.699C67.77 121.381 68.0902 121.061 68.4133 120.744C68.8595 120.303 69.3057 119.857 69.7519 119.414C70.0064 119.162 70.261 118.91 70.5211 118.65C71.7064 117.342 71.7994 116.334 71.7666 114.607C71.6434 113.573 71.2876 112.987 70.584 112.226C69.7245 111.69 69.0264 111.591 68.0191 111.578C67.7672 111.569 67.5181 111.561 67.2581 111.553C65.3638 111.86 64.0443 113.499 62.7632 114.813C62.5606 115.015 62.3608 115.218 62.1528 115.429C61.7175 115.869 61.285 116.31 60.8498 116.75C60.1627 117.451 59.4728 118.149 58.783 118.847C56.8175 120.829 54.8575 122.813 52.9003 124.803C51.7013 126.021 50.4996 127.236 49.2951 128.448C48.838 128.908 48.3835 129.371 47.9291 129.836C47.2941 130.487 46.6508 131.133 46.0075 131.776C45.8241 131.968 45.6406 132.157 45.4518 132.354C42.9005 134.886 40.0673 135.567 36.6017 135.581C34.9401 135.556 33.6754 135.313 32.2601 134.396C31.9837 134.24 31.7072 134.081 31.4225 133.917C28.8904 131.979 27.1001 129.661 26.5116 126.458C26.2488 123.65 26.4568 120.804 28.3155 118.54C30.3877 116.23 32.5886 114.057 34.7868 111.868C35.233 111.422 35.6819 110.975 36.1281 110.529C37.0862 109.574 38.0443 108.619 39.0051 107.664C40.5189 106.153 42.0327 104.642 43.5493 103.129C45.6708 101.01 47.7923 98.8918 49.9138 96.7761C50.0506 96.642 50.1848 96.5079 50.3216 96.3683C52.2324 94.4634 54.1458 92.5557 56.0565 90.6508C56.1907 90.5167 56.3275 90.3825 56.4644 90.243C56.6013 90.1089 56.7354 89.9747 56.875 89.8351C59.1197 87.5963 61.3644 85.3547 63.6091 83.1132C65.1147 81.6106 66.623 80.108 68.1313 78.6054C69.0648 77.6748 70.001 76.7415 70.9344 75.8082C71.3669 75.373 71.8022 74.9406 72.2374 74.5081C72.8315 73.9197 73.42 73.3285 74.0113 72.7373C74.1837 72.5649 74.3589 72.3952 74.5369 72.2173C74.6956 72.0586 74.8544 71.8998 75.0159 71.7356C75.1528 71.5987 75.2897 71.4646 75.4293 71.3223C76.4257 70.1399 76.4503 69.0287 76.4202 67.5316C76.297 66.497 75.9412 65.9113 75.2377 65.1505C74.3781 64.614 73.6801 64.5155 72.6727 64.5018C72.4208 64.4936 72.1717 64.4854 71.9117 64.4772C70.1543 64.7618 68.9142 66.1987 67.7125 67.4221C67.54 67.5946 67.3703 67.767 67.1924 67.9422C66.6202 68.5169 66.0509 69.0944 65.4815 69.6719C65.0709 70.0852 64.6603 70.4985 64.2496 70.9118C63.3655 71.7986 62.484 72.6881 61.5998 73.5776C60.2037 74.9871 58.8049 76.3939 57.4061 77.798C53.4286 81.794 49.4511 85.7927 45.4819 89.7968C43.2892 92.0083 41.0911 94.2198 38.8902 96.4258C37.7295 97.5917 36.5661 98.7604 35.4082 99.9318C34.3187 101.035 33.2264 102.132 32.1287 103.23C31.7291 103.629 31.3294 104.035 30.9325 104.44C28.154 107.264 25.6465 109.473 21.5048 109.571C19.3888 109.588 17.6669 109.58 15.8356 108.395C15.5591 108.239 15.2826 108.08 14.998 107.916C12.4658 105.978 10.6756 103.66 10.087 100.457C9.83792 97.797 10.0733 95.4021 11.4557 93.0675C13.0352 91.1899 14.7625 89.452 16.5035 87.7277C16.8786 87.3527 17.2563 86.9778 17.6314 86.6028C18.031 86.2059 18.4279 85.8091 18.8276 85.4122C19.6625 84.5829 20.4974 83.7509 21.3296 82.9216C23.6975 80.5596 26.0681 78.2003 28.4387 75.841C29.7527 74.5355 31.0666 73.2272 32.3778 71.919C33.2045 71.0924 34.034 70.2659 34.8662 69.442C35.5012 68.8098 36.1363 68.1775 36.7687 67.5453C36.9986 67.3181 37.2286 67.0882 37.4667 66.8556C37.6748 66.6448 37.8828 66.4368 38.0991 66.2206C38.2797 66.04 38.4631 65.8593 38.6493 65.6732C39.7196 64.4471 39.7689 63.366 39.7388 61.784C39.6156 60.7494 39.2597 60.1637 38.5562 59.4028C37.6967 58.8664 36.9986 58.7679 35.9912 58.7542C35.7394 58.746 35.4903 58.7377 35.2302 58.7295C33.2566 59.0498 32.011 60.7412 30.7053 62.1234C29.1094 63.771 27.675 65.0629 25.4166 65.6979C25.2523 65.7526 25.0881 65.8046 24.9184 65.8593C22.2275 66.3739 18.9946 66.2316 16.6212 64.8001C16.0546 64.3951 15.5345 63.9681 15.0144 63.5083C14.7598 63.2948 14.7598 63.2948 14.5025 63.0731C12.5233 61.264 11.3517 58.7569 11.1026 56.0966C10.9548 52.5166 11.9375 50.1765 14.3081 47.5709C15.4743 46.3201 16.676 45.1049 17.8805 43.8924C18.1597 43.6105 18.4389 43.3286 18.7154 43.0495C19.6187 42.1381 20.5221 41.2266 21.4282 40.318C21.5815 40.162 21.7375 40.006 21.8963 39.8472C23.3608 38.3747 24.8253 36.9022 26.2898 35.4325C28.154 33.5659 30.0127 31.6938 31.8687 29.819C33.1826 28.4915 34.4993 27.1696 35.816 25.8504C36.6017 25.0649 37.3846 24.2794 38.162 23.4884C38.8956 22.7439 39.632 22.0049 40.3739 21.2687C40.6421 21.0005 40.9104 20.7295 41.1759 20.4585C43.656 17.9241 46.3031 16.1506 49.9165 16.0739C52.8674 16.1013 55.249 16.9251 57.4444 18.8957C57.6141 19.0408 57.7838 19.1831 57.9563 19.3309C59.4783 20.7186 60.858 22.7932 61.0523 24.8979C61.1618 28.7981 60.899 31.6801 58.137 34.688C57.8851 34.9371 57.6306 35.1862 57.3705 35.4434C57.1597 35.6514 57.1597 35.6514 56.9462 35.8649C56.6423 36.1633 56.3412 36.4616 56.0374 36.7599C55.5556 37.2334 55.0765 37.7069 54.5975 38.1831C53.237 39.5325 51.871 40.879 50.505 42.2256C49.6674 43.0495 48.8325 43.8788 48.0003 44.7053C47.6828 45.0201 47.3652 45.3348 47.0449 45.6468C46.5987 46.0848 46.1553 46.5227 45.7118 46.9633C45.46 47.2124 45.2081 47.4615 44.9481 47.7187C43.8011 49.0352 43.3111 50.223 43.3686 51.9446C43.6067 53.2063 44.3623 54.0904 45.3505 54.8704C47.0668 55.3111 48.2467 55.073 49.7687 54.2765C50.6885 53.7072 51.4084 52.9901 52.1585 52.221C52.3309 52.0486 52.5006 51.8789 52.6758 51.701C53.2425 51.1345 53.8064 50.5597 54.3703 49.9877C54.7754 49.5771 55.1833 49.1666 55.5912 48.7588C56.4672 47.8775 57.3431 46.9934 58.2164 46.1094C59.5988 44.7108 60.9839 43.3149 62.3718 41.9218C65.8182 38.4568 69.2591 34.9864 72.6973 31.5159C75.369 28.8172 78.0435 26.1213 80.7234 23.4309C82.1004 22.046 83.4745 20.6583 84.846 19.268C85.7028 18.4004 86.5624 17.5382 87.4219 16.6761C87.8188 16.2765 88.213 15.8769 88.6072 15.4745C92.9542 11.0434 98.2293 7.97251 104.331 11.6045Z"/>
</mask>
<path d="M104.331 11.6045C104.884 12.0013 105.39 12.4201 105.897 12.8744C106.066 13.0195 106.233 13.1618 106.409 13.3096C107.931 14.6972 109.31 16.7719 109.505 18.8766C109.653 24.137 109.653 24.137 108.36 26.2855C108.155 26.6331 108.155 26.6331 107.944 26.9862C107.074 28.2863 105.921 29.34 104.813 30.4348C104.432 30.8125 104.054 31.1929 103.674 31.5706C103.266 31.9757 102.861 32.378 102.453 32.7831C101.602 33.6261 100.753 34.4718 99.9046 35.3148C98.1061 37.1102 96.3048 38.9002 94.5036 40.6902C92.5546 42.6252 90.6083 44.5603 88.6647 46.498C87.8216 47.3383 86.9757 48.1785 86.1326 49.016C85.7329 49.4102 85.336 49.807 84.9363 50.2039C84.4518 50.6856 83.9673 51.1673 83.48 51.649C83.2665 51.8625 83.053 52.076 82.834 52.2949C82.5548 52.5714 82.5548 52.5714 82.2701 52.856C81.1943 54.0849 81.1423 55.1605 81.1724 56.7507C81.2956 57.7853 81.6542 58.371 82.355 59.1291C83.2145 59.6683 83.9153 59.7668 84.9226 59.7805C85.1717 59.7887 85.4236 59.797 85.6809 59.8052C87.4986 59.5096 88.7304 58.0125 89.9458 56.737C90.2989 56.373 90.6521 56.0117 91.0079 55.6477C91.5582 55.0812 92.1056 54.5146 92.6504 53.9426C97.679 48.6931 97.679 48.6931 101.525 48.392C104.84 48.3209 107.509 48.9531 110.003 51.1919C110.173 51.337 110.34 51.4793 110.515 51.6271C112.037 53.0148 113.416 55.0894 113.611 57.1941C113.72 61.1052 113.449 63.9736 110.687 66.9952C110.43 67.2552 110.167 67.5152 109.904 67.7725C109.762 67.9175 109.617 68.0626 109.466 68.2104C108.987 68.6921 108.503 69.1683 108.018 69.6473C107.673 69.9922 107.326 70.3397 106.978 70.6846C106.233 71.4263 105.489 72.168 104.742 72.9098C103.562 74.0812 102.382 75.2553 101.205 76.4295C98.2785 79.3444 95.3522 82.2565 92.4204 85.1686C90.1429 87.4348 87.8681 89.6983 85.5933 91.9672C84.4217 93.1332 83.2501 94.2991 82.0757 95.4624C81.3448 96.1877 80.6167 96.9129 79.8885 97.641C79.5518 97.9776 79.2151 98.3143 78.8757 98.6482C78.4131 99.1053 77.9504 99.5651 77.4905 100.028C77.3564 100.159 77.2223 100.29 77.0854 100.424C75.9576 101.563 75.1227 102.786 75.1199 104.426C75.1665 105.658 75.495 106.375 76.3326 107.3C77.5343 108.102 78.4623 108.296 79.8913 108.121C81.7281 107.469 82.9763 106.282 84.3177 104.91C84.5339 104.697 84.7474 104.483 84.9664 104.262C85.6809 103.545 86.3926 102.825 87.1044 102.105C87.6163 101.59 88.1282 101.073 88.6428 100.559C89.746 99.4501 90.8464 98.3416 91.9469 97.2304C93.54 95.6211 95.1387 94.0145 96.7374 92.4106C99.3324 89.8023 101.928 87.194 104.523 84.5829C104.676 84.4269 104.832 84.2709 104.991 84.1094C106.721 82.3687 108.451 80.628 110.178 78.8873C110.805 78.2551 111.432 77.6228 112.059 76.9933C112.212 76.8373 112.365 76.6813 112.527 76.5198C115.108 73.9197 117.692 71.3223 120.279 68.7249C121.875 67.1265 123.466 65.5254 125.053 63.9188C126.14 62.8186 127.232 61.721 128.327 60.6235C128.957 59.994 129.586 59.359 130.211 58.7241C136.268 52.5741 136.268 52.5741 140.799 52.4756C143.75 52.5029 146.131 53.3268 148.327 55.2974C148.497 55.4424 148.664 55.5848 148.839 55.7326C150.361 57.1202 151.74 59.1948 151.935 61.2996C152.083 66.56 152.083 66.56 150.79 68.7085C150.656 68.9384 150.519 69.1683 150.383 69.4037C149.485 70.7421 148.288 71.8204 147.147 72.9453C146.887 73.2026 146.627 73.4626 146.367 73.7199C145.808 74.2755 145.247 74.8311 144.689 75.384C143.802 76.2598 142.918 77.1384 142.033 78.0169C139.523 80.5158 137.008 83.0119 134.489 85.5025C133.099 86.882 131.708 88.2614 130.32 89.6436C129.441 90.5167 128.563 91.3897 127.681 92.2574C127.134 92.7993 126.586 93.3439 126.041 93.8886C125.669 94.2608 125.294 94.6276 124.919 94.9943C123.594 96.3245 122.453 97.4768 122.264 99.4255C122.461 100.728 122.828 101.612 123.69 102.647C124.911 103.397 126.135 103.463 127.522 103.194C128.393 102.688 129.028 102.012 129.712 101.278C132.422 98.484 134.771 96.3792 138.814 96.2342C142.023 96.319 144.9 97.3782 147.224 99.6061C149.63 102.198 150.41 105.077 150.347 108.575C149.961 111.98 147.741 114.536 145.411 116.871C145.236 117.046 145.061 117.224 144.883 117.405C144.311 117.982 143.739 118.557 143.167 119.132C142.764 119.537 142.362 119.939 141.962 120.344C141.122 121.19 140.279 122.033 139.438 122.873C138.365 123.949 137.295 125.027 136.227 126.108C135.401 126.943 134.571 127.775 133.739 128.607C133.345 129.004 132.951 129.401 132.557 129.8C129.296 133.104 126.468 135.414 121.673 135.594C118.464 135.532 116.151 134.226 113.904 132.009C111.741 129.642 110.964 126.891 111.032 123.727C111.328 120.09 113.384 117.427 115.957 114.999C116.373 114.602 116.789 114.202 117.202 113.803C117.383 113.63 117.566 113.461 117.753 113.283C118.664 112.284 118.889 111.427 118.85 110.064C118.694 109.021 118.303 108.425 117.668 107.573C116.603 106.823 115.683 106.657 114.418 106.618C112.779 107.001 111.544 108.422 110.405 109.582C110.233 109.755 110.06 109.927 109.882 110.105C109.308 110.685 108.733 111.266 108.161 111.846C107.747 112.262 107.334 112.678 106.921 113.094C106.031 113.989 105.141 114.884 104.254 115.779C102.85 117.197 101.44 118.612 100.033 120.027C96.0284 124.047 92.0263 128.073 88.0296 132.102C85.8205 134.33 83.6087 136.552 81.3941 138.775C80.2252 139.949 79.0564 141.123 77.8902 142.303C76.7925 143.414 75.6921 144.52 74.5889 145.623C74.1865 146.028 73.7841 146.433 73.3844 146.841C70.3459 149.931 67.7535 151.962 63.2806 152C61.3808 152.005 59.8971 151.874 58.2656 150.817C57.9892 150.661 57.7127 150.503 57.428 150.339C54.8959 148.401 53.1056 146.083 52.5171 142.88C52.2679 140.22 52.5034 137.825 53.8858 135.49C55.572 133.462 57.4581 131.615 59.3305 129.762C59.8178 129.28 60.3023 128.801 60.7841 128.32C62.1582 126.951 63.5352 125.585 64.9094 124.222C65.758 123.382 66.6038 122.542 67.4497 121.699C67.77 121.381 68.0902 121.061 68.4133 120.744C68.8595 120.303 69.3057 119.857 69.7519 119.414C70.0064 119.162 70.261 118.91 70.5211 118.65C71.7064 117.342 71.7994 116.334 71.7666 114.607C71.6434 113.573 71.2876 112.987 70.584 112.226C69.7245 111.69 69.0264 111.591 68.0191 111.578C67.7672 111.569 67.5181 111.561 67.2581 111.553C65.3638 111.86 64.0443 113.499 62.7632 114.813C62.5606 115.015 62.3608 115.218 62.1528 115.429C61.7175 115.869 61.285 116.31 60.8498 116.75C60.1627 117.451 59.4728 118.149 58.783 118.847C56.8175 120.829 54.8575 122.813 52.9003 124.803C51.7013 126.021 50.4996 127.236 49.2951 128.448C48.838 128.908 48.3835 129.371 47.9291 129.836C47.2941 130.487 46.6508 131.133 46.0075 131.776C45.8241 131.968 45.6406 132.157 45.4518 132.354C42.9005 134.886 40.0673 135.567 36.6017 135.581C34.9401 135.556 33.6754 135.313 32.2601 134.396C31.9837 134.24 31.7072 134.081 31.4225 133.917C28.8904 131.979 27.1001 129.661 26.5116 126.458C26.2488 123.65 26.4568 120.804 28.3155 118.54C30.3877 116.23 32.5886 114.057 34.7868 111.868C35.233 111.422 35.6819 110.975 36.1281 110.529C37.0862 109.574 38.0443 108.619 39.0051 107.664C40.5189 106.153 42.0327 104.642 43.5493 103.129C45.6708 101.01 47.7923 98.8918 49.9138 96.7761C50.0506 96.642 50.1848 96.5079 50.3216 96.3683C52.2324 94.4634 54.1458 92.5557 56.0565 90.6508C56.1907 90.5167 56.3275 90.3825 56.4644 90.243C56.6013 90.1089 56.7354 89.9747 56.875 89.8351C59.1197 87.5963 61.3644 85.3547 63.6091 83.1132C65.1147 81.6106 66.623 80.108 68.1313 78.6054C69.0648 77.6748 70.001 76.7415 70.9344 75.8082C71.3669 75.373 71.8022 74.9406 72.2374 74.5081C72.8315 73.9197 73.42 73.3285 74.0113 72.7373C74.1837 72.5649 74.3589 72.3952 74.5369 72.2173C74.6956 72.0586 74.8544 71.8998 75.0159 71.7356C75.1528 71.5987 75.2897 71.4646 75.4293 71.3223C76.4257 70.1399 76.4503 69.0287 76.4202 67.5316C76.297 66.497 75.9412 65.9113 75.2377 65.1505C74.3781 64.614 73.6801 64.5155 72.6727 64.5018C72.4208 64.4936 72.1717 64.4854 71.9117 64.4772C70.1543 64.7618 68.9142 66.1987 67.7125 67.4221C67.54 67.5946 67.3703 67.767 67.1924 67.9422C66.6202 68.5169 66.0509 69.0944 65.4815 69.6719C65.0709 70.0852 64.6603 70.4985 64.2496 70.9118C63.3655 71.7986 62.484 72.6881 61.5998 73.5776C60.2037 74.9871 58.8049 76.3939 57.4061 77.798C53.4286 81.794 49.4511 85.7927 45.4819 89.7968C43.2892 92.0083 41.0911 94.2198 38.8902 96.4258C37.7295 97.5917 36.5661 98.7604 35.4082 99.9318C34.3187 101.035 33.2264 102.132 32.1287 103.23C31.7291 103.629 31.3294 104.035 30.9325 104.44C28.154 107.264 25.6465 109.473 21.5048 109.571C19.3888 109.588 17.6669 109.58 15.8356 108.395C15.5591 108.239 15.2826 108.08 14.998 107.916C12.4658 105.978 10.6756 103.66 10.087 100.457C9.83792 97.797 10.0733 95.4021 11.4557 93.0675C13.0352 91.1899 14.7625 89.452 16.5035 87.7277C16.8786 87.3527 17.2563 86.9778 17.6314 86.6028C18.031 86.2059 18.4279 85.8091 18.8276 85.4122C19.6625 84.5829 20.4974 83.7509 21.3296 82.9216C23.6975 80.5596 26.0681 78.2003 28.4387 75.841C29.7527 74.5355 31.0666 73.2272 32.3778 71.919C33.2045 71.0924 34.034 70.2659 34.8662 69.442C35.5012 68.8098 36.1363 68.1775 36.7687 67.5453C36.9986 67.3181 37.2286 67.0882 37.4667 66.8556C37.6748 66.6448 37.8828 66.4368 38.0991 66.2206C38.2797 66.04 38.4631 65.8593 38.6493 65.6732C39.7196 64.4471 39.7689 63.366 39.7388 61.784C39.6156 60.7494 39.2597 60.1637 38.5562 59.4028C37.6967 58.8664 36.9986 58.7679 35.9912 58.7542C35.7394 58.746 35.4903 58.7377 35.2302 58.7295C33.2566 59.0498 32.011 60.7412 30.7053 62.1234C29.1094 63.771 27.675 65.0629 25.4166 65.6979C25.2523 65.7526 25.0881 65.8046 24.9184 65.8593C22.2275 66.3739 18.9946 66.2316 16.6212 64.8001C16.0546 64.3951 15.5345 63.9681 15.0144 63.5083C14.7598 63.2948 14.7598 63.2948 14.5025 63.0731C12.5233 61.264 11.3517 58.7569 11.1026 56.0966C10.9548 52.5166 11.9375 50.1765 14.3081 47.5709C15.4743 46.3201 16.676 45.1049 17.8805 43.8924C18.1597 43.6105 18.4389 43.3286 18.7154 43.0495C19.6187 42.1381 20.5221 41.2266 21.4282 40.318C21.5815 40.162 21.7375 40.006 21.8963 39.8472C23.3608 38.3747 24.8253 36.9022 26.2898 35.4325C28.154 33.5659 30.0127 31.6938 31.8687 29.819C33.1826 28.4915 34.4993 27.1696 35.816 25.8504C36.6017 25.0649 37.3846 24.2794 38.162 23.4884C38.8956 22.7439 39.632 22.0049 40.3739 21.2687C40.6421 21.0005 40.9104 20.7295 41.1759 20.4585C43.656 17.9241 46.3031 16.1506 49.9165 16.0739C52.8674 16.1013 55.249 16.9251 57.4444 18.8957C57.6141 19.0408 57.7838 19.1831 57.9563 19.3309C59.4783 20.7186 60.858 22.7932 61.0523 24.8979C61.1618 28.7981 60.899 31.6801 58.137 34.688C57.8851 34.9371 57.6306 35.1862 57.3705 35.4434C57.1597 35.6514 57.1597 35.6514 56.9462 35.8649C56.6423 36.1633 56.3412 36.4616 56.0374 36.7599C55.5556 37.2334 55.0765 37.7069 54.5975 38.1831C53.237 39.5325 51.871 40.879 50.505 42.2256C49.6674 43.0495 48.8325 43.8788 48.0003 44.7053C47.6828 45.0201 47.3652 45.3348 47.0449 45.6468C46.5987 46.0848 46.1553 46.5227 45.7118 46.9633C45.46 47.2124 45.2081 47.4615 44.9481 47.7187C43.8011 49.0352 43.3111 50.223 43.3686 51.9446C43.6067 53.2063 44.3623 54.0904 45.3505 54.8704C47.0668 55.3111 48.2467 55.073 49.7687 54.2765C50.6885 53.7072 51.4084 52.9901 52.1585 52.221C52.3309 52.0486 52.5006 51.8789 52.6758 51.701C53.2425 51.1345 53.8064 50.5597 54.3703 49.9877C54.7754 49.5771 55.1833 49.1666 55.5912 48.7588C56.4672 47.8775 57.3431 46.9934 58.2164 46.1094C59.5988 44.7108 60.9839 43.3149 62.3718 41.9218C65.8182 38.4568 69.2591 34.9864 72.6973 31.5159C75.369 28.8172 78.0435 26.1213 80.7234 23.4309C82.1004 22.046 83.4745 20.6583 84.846 19.268C85.7028 18.4004 86.5624 17.5382 87.4219 16.6761C87.8188 16.2765 88.213 15.8769 88.6072 15.4745C92.9542 11.0434 98.2293 7.97251 104.331 11.6045Z" fill="url(#paint0_linear_105_34)"/>
<path d="M104.331 11.6045C104.884 12.0013 105.39 12.4201 105.897 12.8744C106.066 13.0195 106.233 13.1618 106.409 13.3096C107.931 14.6972 109.31 16.7719 109.505 18.8766C109.653 24.137 109.653 24.137 108.36 26.2855C108.155 26.6331 108.155 26.6331 107.944 26.9862C107.074 28.2863 105.921 29.34 104.813 30.4348C104.432 30.8125 104.054 31.1929 103.674 31.5706C103.266 31.9757 102.861 32.378 102.453 32.7831C101.602 33.6261 100.753 34.4718 99.9046 35.3148C98.1061 37.1102 96.3048 38.9002 94.5036 40.6902C92.5546 42.6252 90.6083 44.5603 88.6647 46.498C87.8216 47.3383 86.9757 48.1785 86.1326 49.016C85.7329 49.4102 85.336 49.807 84.9363 50.2039C84.4518 50.6856 83.9673 51.1673 83.48 51.649C83.2665 51.8625 83.053 52.076 82.834 52.2949C82.5548 52.5714 82.5548 52.5714 82.2701 52.856C81.1943 54.0849 81.1423 55.1605 81.1724 56.7507C81.2956 57.7853 81.6542 58.371 82.355 59.1291C83.2145 59.6683 83.9153 59.7668 84.9226 59.7805C85.1717 59.7887 85.4236 59.797 85.6809 59.8052C87.4986 59.5096 88.7304 58.0125 89.9458 56.737C90.2989 56.373 90.6521 56.0117 91.0079 55.6477C91.5582 55.0812 92.1056 54.5146 92.6504 53.9426C97.679 48.6931 97.679 48.6931 101.525 48.392C104.84 48.3209 107.509 48.9531 110.003 51.1919C110.173 51.337 110.34 51.4793 110.515 51.6271C112.037 53.0148 113.416 55.0894 113.611 57.1941C113.72 61.1052 113.449 63.9736 110.687 66.9952C110.43 67.2552 110.167 67.5152 109.904 67.7725C109.762 67.9175 109.617 68.0626 109.466 68.2104C108.987 68.6921 108.503 69.1683 108.018 69.6473C107.673 69.9922 107.326 70.3397 106.978 70.6846C106.233 71.4263 105.489 72.168 104.742 72.9098C103.562 74.0812 102.382 75.2553 101.205 76.4295C98.2785 79.3444 95.3522 82.2565 92.4204 85.1686C90.1429 87.4348 87.8681 89.6983 85.5933 91.9672C84.4217 93.1332 83.2501 94.2991 82.0757 95.4624C81.3448 96.1877 80.6167 96.9129 79.8885 97.641C79.5518 97.9776 79.2151 98.3143 78.8757 98.6482C78.4131 99.1053 77.9504 99.5651 77.4905 100.028C77.3564 100.159 77.2223 100.29 77.0854 100.424C75.9576 101.563 75.1227 102.786 75.1199 104.426C75.1665 105.658 75.495 106.375 76.3326 107.3C77.5343 108.102 78.4623 108.296 79.8913 108.121C81.7281 107.469 82.9763 106.282 84.3177 104.91C84.5339 104.697 84.7474 104.483 84.9664 104.262C85.6809 103.545 86.3926 102.825 87.1044 102.105C87.6163 101.59 88.1282 101.073 88.6428 100.559C89.746 99.4501 90.8464 98.3416 91.9469 97.2304C93.54 95.6211 95.1387 94.0145 96.7374 92.4106C99.3324 89.8023 101.928 87.194 104.523 84.5829C104.676 84.4269 104.832 84.2709 104.991 84.1094C106.721 82.3687 108.451 80.628 110.178 78.8873C110.805 78.2551 111.432 77.6228 112.059 76.9933C112.212 76.8373 112.365 76.6813 112.527 76.5198C115.108 73.9197 117.692 71.3223 120.279 68.7249C121.875 67.1265 123.466 65.5254 125.053 63.9188C126.14 62.8186 127.232 61.721 128.327 60.6235C128.957 59.994 129.586 59.359 130.211 58.7241C136.268 52.5741 136.268 52.5741 140.799 52.4756C143.75 52.5029 146.131 53.3268 148.327 55.2974C148.497 55.4424 148.664 55.5848 148.839 55.7326C150.361 57.1202 151.74 59.1948 151.935 61.2996C152.083 66.56 152.083 66.56 150.79 68.7085C150.656 68.9384 150.519 69.1683 150.383 69.4037C149.485 70.7421 148.288 71.8204 147.147 72.9453C146.887 73.2026 146.627 73.4626 146.367 73.7199C145.808 74.2755 145.247 74.8311 144.689 75.384C143.802 76.2598 142.918 77.1384 142.033 78.0169C139.523 80.5158 137.008 83.0119 134.489 85.5025C133.099 86.882 131.708 88.2614 130.32 89.6436C129.441 90.5167 128.563 91.3897 127.681 92.2574C127.134 92.7993 126.586 93.3439 126.041 93.8886C125.669 94.2608 125.294 94.6276 124.919 94.9943C123.594 96.3245 122.453 97.4768 122.264 99.4255C122.461 100.728 122.828 101.612 123.69 102.647C124.911 103.397 126.135 103.463 127.522 103.194C128.393 102.688 129.028 102.012 129.712 101.278C132.422 98.484 134.771 96.3792 138.814 96.2342C142.023 96.319 144.9 97.3782 147.224 99.6061C149.63 102.198 150.41 105.077 150.347 108.575C149.961 111.98 147.741 114.536 145.411 116.871C145.236 117.046 145.061 117.224 144.883 117.405C144.311 117.982 143.739 118.557 143.167 119.132C142.764 119.537 142.362 119.939 141.962 120.344C141.122 121.19 140.279 122.033 139.438 122.873C138.365 123.949 137.295 125.027 136.227 126.108C135.401 126.943 134.571 127.775 133.739 128.607C133.345 129.004 132.951 129.401 132.557 129.8C129.296 133.104 126.468 135.414 121.673 135.594C118.464 135.532 116.151 134.226 113.904 132.009C111.741 129.642 110.964 126.891 111.032 123.727C111.328 120.09 113.384 117.427 115.957 114.999C116.373 114.602 116.789 114.202 117.202 113.803C117.383 113.63 117.566 113.461 117.753 113.283C118.664 112.284 118.889 111.427 118.85 110.064C118.694 109.021 118.303 108.425 117.668 107.573C116.603 106.823 115.683 106.657 114.418 106.618C112.779 107.001 111.544 108.422 110.405 109.582C110.233 109.755 110.06 109.927 109.882 110.105C109.308 110.685 108.733 111.266 108.161 111.846C107.747 112.262 107.334 112.678 106.921 113.094C106.031 113.989 105.141 114.884 104.254 115.779C102.85 117.197 101.44 118.612 100.033 120.027C96.0284 124.047 92.0263 128.073 88.0296 132.102C85.8205 134.33 83.6087 136.552 81.3941 138.775C80.2252 139.949 79.0564 141.123 77.8902 142.303C76.7925 143.414 75.6921 144.52 74.5889 145.623C74.1865 146.028 73.7841 146.433 73.3844 146.841C70.3459 149.931 67.7535 151.962 63.2806 152C61.3808 152.005 59.8971 151.874 58.2656 150.817C57.9892 150.661 57.7127 150.503 57.428 150.339C54.8959 148.401 53.1056 146.083 52.5171 142.88C52.2679 140.22 52.5034 137.825 53.8858 135.49C55.572 133.462 57.4581 131.615 59.3305 129.762C59.8178 129.28 60.3023 128.801 60.7841 128.32C62.1582 126.951 63.5352 125.585 64.9094 124.222C65.758 123.382 66.6038 122.542 67.4497 121.699C67.77 121.381 68.0902 121.061 68.4133 120.744C68.8595 120.303 69.3057 119.857 69.7519 119.414C70.0064 119.162 70.261 118.91 70.5211 118.65C71.7064 117.342 71.7994 116.334 71.7666 114.607C71.6434 113.573 71.2876 112.987 70.584 112.226C69.7245 111.69 69.0264 111.591 68.0191 111.578C67.7672 111.569 67.5181 111.561 67.2581 111.553C65.3638 111.86 64.0443 113.499 62.7632 114.813C62.5606 115.015 62.3608 115.218 62.1528 115.429C61.7175 115.869 61.285 116.31 60.8498 116.75C60.1627 117.451 59.4728 118.149 58.783 118.847C56.8175 120.829 54.8575 122.813 52.9003 124.803C51.7013 126.021 50.4996 127.236 49.2951 128.448C48.838 128.908 48.3835 129.371 47.9291 129.836C47.2941 130.487 46.6508 131.133 46.0075 131.776C45.8241 131.968 45.6406 132.157 45.4518 132.354C42.9005 134.886 40.0673 135.567 36.6017 135.581C34.9401 135.556 33.6754 135.313 32.2601 134.396C31.9837 134.24 31.7072 134.081 31.4225 133.917C28.8904 131.979 27.1001 129.661 26.5116 126.458C26.2488 123.65 26.4568 120.804 28.3155 118.54C30.3877 116.23 32.5886 114.057 34.7868 111.868C35.233 111.422 35.6819 110.975 36.1281 110.529C37.0862 109.574 38.0443 108.619 39.0051 107.664C40.5189 106.153 42.0327 104.642 43.5493 103.129C45.6708 101.01 47.7923 98.8918 49.9138 96.7761C50.0506 96.642 50.1848 96.5079 50.3216 96.3683C52.2324 94.4634 54.1458 92.5557 56.0565 90.6508C56.1907 90.5167 56.3275 90.3825 56.4644 90.243C56.6013 90.1089 56.7354 89.9747 56.875 89.8351C59.1197 87.5963 61.3644 85.3547 63.6091 83.1132C65.1147 81.6106 66.623 80.108 68.1313 78.6054C69.0648 77.6748 70.001 76.7415 70.9344 75.8082C71.3669 75.373 71.8022 74.9406 72.2374 74.5081C72.8315 73.9197 73.42 73.3285 74.0113 72.7373C74.1837 72.5649 74.3589 72.3952 74.5369 72.2173C74.6956 72.0586 74.8544 71.8998 75.0159 71.7356C75.1528 71.5987 75.2897 71.4646 75.4293 71.3223C76.4257 70.1399 76.4503 69.0287 76.4202 67.5316C76.297 66.497 75.9412 65.9113 75.2377 65.1505C74.3781 64.614 73.6801 64.5155 72.6727 64.5018C72.4208 64.4936 72.1717 64.4854 71.9117 64.4772C70.1543 64.7618 68.9142 66.1987 67.7125 67.4221C67.54 67.5946 67.3703 67.767 67.1924 67.9422C66.6202 68.5169 66.0509 69.0944 65.4815 69.6719C65.0709 70.0852 64.6603 70.4985 64.2496 70.9118C63.3655 71.7986 62.484 72.6881 61.5998 73.5776C60.2037 74.9871 58.8049 76.3939 57.4061 77.798C53.4286 81.794 49.4511 85.7927 45.4819 89.7968C43.2892 92.0083 41.0911 94.2198 38.8902 96.4258C37.7295 97.5917 36.5661 98.7604 35.4082 99.9318C34.3187 101.035 33.2264 102.132 32.1287 103.23C31.7291 103.629 31.3294 104.035 30.9325 104.44C28.154 107.264 25.6465 109.473 21.5048 109.571C19.3888 109.588 17.6669 109.58 15.8356 108.395C15.5591 108.239 15.2826 108.08 14.998 107.916C12.4658 105.978 10.6756 103.66 10.087 100.457C9.83792 97.797 10.0733 95.4021 11.4557 93.0675C13.0352 91.1899 14.7625 89.452 16.5035 87.7277C16.8786 87.3527 17.2563 86.9778 17.6314 86.6028C18.031 86.2059 18.4279 85.8091 18.8276 85.4122C19.6625 84.5829 20.4974 83.7509 21.3296 82.9216C23.6975 80.5596 26.0681 78.2003 28.4387 75.841C29.7527 74.5355 31.0666 73.2272 32.3778 71.919C33.2045 71.0924 34.034 70.2659 34.8662 69.442C35.5012 68.8098 36.1363 68.1775 36.7687 67.5453C36.9986 67.3181 37.2286 67.0882 37.4667 66.8556C37.6748 66.6448 37.8828 66.4368 38.0991 66.2206C38.2797 66.04 38.4631 65.8593 38.6493 65.6732C39.7196 64.4471 39.7689 63.366 39.7388 61.784C39.6156 60.7494 39.2597 60.1637 38.5562 59.4028C37.6967 58.8664 36.9986 58.7679 35.9912 58.7542C35.7394 58.746 35.4903 58.7377 35.2302 58.7295C33.2566 59.0498 32.011 60.7412 30.7053 62.1234C29.1094 63.771 27.675 65.0629 25.4166 65.6979C25.2523 65.7526 25.0881 65.8046 24.9184 65.8593C22.2275 66.3739 18.9946 66.2316 16.6212 64.8001C16.0546 64.3951 15.5345 63.9681 15.0144 63.5083C14.7598 63.2948 14.7598 63.2948 14.5025 63.0731C12.5233 61.264 11.3517 58.7569 11.1026 56.0966C10.9548 52.5166 11.9375 50.1765 14.3081 47.5709C15.4743 46.3201 16.676 45.1049 17.8805 43.8924C18.1597 43.6105 18.4389 43.3286 18.7154 43.0495C19.6187 42.1381 20.5221 41.2266 21.4282 40.318C21.5815 40.162 21.7375 40.006 21.8963 39.8472C23.3608 38.3747 24.8253 36.9022 26.2898 35.4325C28.154 33.5659 30.0127 31.6938 31.8687 29.819C33.1826 28.4915 34.4993 27.1696 35.816 25.8504C36.6017 25.0649 37.3846 24.2794 38.162 23.4884C38.8956 22.7439 39.632 22.0049 40.3739 21.2687C40.6421 21.0005 40.9104 20.7295 41.1759 20.4585C43.656 17.9241 46.3031 16.1506 49.9165 16.0739C52.8674 16.1013 55.249 16.9251 57.4444 18.8957C57.6141 19.0408 57.7838 19.1831 57.9563 19.3309C59.4783 20.7186 60.858 22.7932 61.0523 24.8979C61.1618 28.7981 60.899 31.6801 58.137 34.688C57.8851 34.9371 57.6306 35.1862 57.3705 35.4434C57.1597 35.6514 57.1597 35.6514 56.9462 35.8649C56.6423 36.1633 56.3412 36.4616 56.0374 36.7599C55.5556 37.2334 55.0765 37.7069 54.5975 38.1831C53.237 39.5325 51.871 40.879 50.505 42.2256C49.6674 43.0495 48.8325 43.8788 48.0003 44.7053C47.6828 45.0201 47.3652 45.3348 47.0449 45.6468C46.5987 46.0848 46.1553 46.5227 45.7118 46.9633C45.46 47.2124 45.2081 47.4615 44.9481 47.7187C43.8011 49.0352 43.3111 50.223 43.3686 51.9446C43.6067 53.2063 44.3623 54.0904 45.3505 54.8704C47.0668 55.3111 48.2467 55.073 49.7687 54.2765C50.6885 53.7072 51.4084 52.9901 52.1585 52.221C52.3309 52.0486 52.5006 51.8789 52.6758 51.701C53.2425 51.1345 53.8064 50.5597 54.3703 49.9877C54.7754 49.5771 55.1833 49.1666 55.5912 48.7588C56.4672 47.8775 57.3431 46.9934 58.2164 46.1094C59.5988 44.7108 60.9839 43.3149 62.3718 41.9218C65.8182 38.4568 69.2591 34.9864 72.6973 31.5159C75.369 28.8172 78.0435 26.1213 80.7234 23.4309C82.1004 22.046 83.4745 20.6583 84.846 19.268C85.7028 18.4004 86.5624 17.5382 87.4219 16.6761C87.8188 16.2765 88.213 15.8769 88.6072 15.4745C92.9542 11.0434 98.2293 7.97251 104.331 11.6045Z" stroke="#FAEACC" stroke-width="20" mask="url(#path-1-outside-1_105_34)"/>
<path d="M192 18H217.641V123.501H278.827V148.283H192V18Z" fill="#FAEACC"/>
<path d="M326.152 152C319.197 152 313.361 149.876 308.646 145.627C303.93 141.261 301.454 135.656 301.218 128.811V70.9273H325.975V119.606C326.211 123.029 327.095 125.802 328.628 127.926C330.161 129.932 332.754 130.935 336.409 130.935C340.063 130.935 343.188 129.696 345.781 127.218C348.493 124.74 350.556 121.376 351.97 117.128C353.503 112.762 354.269 107.864 354.269 102.436V70.9273H379.026V148.283H356.568L354.623 134.122L354.977 135.715C353.208 138.901 350.968 141.733 348.257 144.211C345.545 146.69 342.303 148.578 338.531 149.876C334.876 151.292 330.75 152 326.152 152Z" fill="#FAEACC"/>
<path d="M426.946 70.9273L428.891 84.5575L428.538 83.4954C431.603 78.303 435.434 74.2906 440.032 71.4584C444.63 68.5081 450.171 67.033 456.655 67.033C460.899 67.033 464.612 67.6231 467.795 68.8032C471.096 69.9833 473.867 71.7534 476.107 74.1136C478.346 76.3558 479.879 79.306 480.704 82.9643L479.82 83.1413C483.121 78.3029 487.07 74.4086 491.668 71.4584C496.384 68.5081 501.276 67.033 506.346 67.033C514.008 67.033 520.08 69.2162 524.56 73.5826C529.157 77.8309 531.515 83.3774 531.633 90.2219V148.283H507.053V100.489C506.935 97.0665 506.404 94.2933 505.461 92.1691C504.518 89.9269 502.337 88.6878 498.918 88.4518C494.91 88.4518 491.491 89.8679 488.662 92.7001C485.95 95.4144 483.887 98.9546 482.473 103.321C481.176 107.569 480.527 111.995 480.527 116.597V148.283H455.77V100.489C455.652 97.0665 455.004 94.2933 453.825 92.1691C452.764 89.9269 450.524 88.6878 447.105 88.4518C443.215 88.4518 439.914 89.8679 437.203 92.7001C434.609 95.4144 432.605 98.8956 431.19 103.144C429.893 107.392 429.245 111.759 429.245 116.243V148.283H404.488V70.9273H426.946Z" fill="#FAEACC"/>
<path d="M677.349 70.9273L679.294 84.7345L678.94 83.4954C681.652 78.657 685.483 74.7627 690.435 71.8124C695.386 68.7442 701.457 67.21 708.649 67.21C715.958 67.21 722.029 69.3932 726.863 73.7596C731.814 78.0079 734.349 83.5544 734.467 90.3989V148.283H709.71V99.6037C709.592 96.1814 708.649 93.4672 706.88 91.461C705.23 89.3369 702.401 88.2748 698.392 88.2748C694.62 88.2748 691.319 89.5139 688.489 91.9921C685.66 94.4703 683.479 97.8336 681.947 102.082C680.414 106.33 679.648 111.228 679.648 116.774V148.283H654.891V70.9273H677.349Z" fill="#FAEACC"/>
<path d="M792.425 150.407C785.234 150.407 778.691 148.991 772.796 146.159C767.019 143.208 762.422 138.724 759.003 132.705C755.584 126.687 753.875 119.016 753.875 109.694C753.875 100.961 755.643 93.4082 759.18 87.0357C762.716 80.6631 767.373 75.7657 773.15 72.3435C778.926 68.8032 785.057 67.033 791.541 67.033C799.204 67.033 804.98 68.3311 808.871 70.9273C812.879 73.4056 816.18 76.1788 818.773 79.247L817.712 82.2563L820.011 70.9273H843V148.283H818.243V131.466L820.188 136.777C819.952 136.777 819.245 137.485 818.066 138.901C816.887 140.199 815.119 141.792 812.761 143.68C810.521 145.45 807.692 146.985 804.273 148.283C800.972 149.699 797.023 150.407 792.425 150.407ZM799.498 130.227C802.446 130.227 805.098 129.814 807.456 128.988C809.814 128.044 811.877 126.746 813.645 125.094C815.414 123.324 816.946 121.14 818.243 118.544V99.6037C817.3 97.0075 815.885 94.8243 813.999 93.0542C812.113 91.166 809.873 89.7499 807.279 88.8058C804.686 87.7437 801.797 87.2127 798.614 87.2127C795.077 87.2127 791.777 88.1568 788.711 90.0449C785.764 91.8151 783.406 94.2933 781.638 97.4795C779.87 100.666 778.985 104.324 778.985 108.454C778.985 112.585 779.929 116.302 781.815 119.606C783.701 122.911 786.177 125.507 789.242 127.395C792.425 129.283 795.844 130.227 799.498 130.227Z" fill="#FAEACC"/>
<path d="M616.047 121.466H636.797C636.03 127.024 633.967 131.982 630.608 136.341C627.345 140.7 622.883 144.133 617.221 146.639C611.559 149.146 604.65 150.399 596.493 150.399C587.377 150.399 579.316 148.764 572.311 145.495C565.306 142.117 559.836 137.268 555.902 130.947C551.967 124.626 550 116.998 550 108.062C550 99.1264 551.919 91.4985 555.758 85.1779C559.596 78.7484 564.922 73.8445 571.735 70.4663C578.645 67.088 586.705 65.399 595.918 65.399C605.322 65.399 613.143 67.088 619.38 70.4663C625.618 73.8445 630.224 78.9663 633.199 85.8317C636.27 92.5882 637.565 101.251 637.085 111.822H571.735C572.215 115.963 571.9 120.005 574.107 123.383C576.41 126.762 579.185 128.985 583.024 130.947C586.958 132.909 590.688 134.053 596.062 134.053C602.011 134.053 605.838 133.235 609.773 130.947C613.803 128.549 614.896 125.171 616.047 121.466ZM596.062 81.5426C589.152 81.5426 583.049 83.3253 578.731 86.8126C574.412 90.1908 572.983 94.3862 571.735 99.3991H616.047C615.568 93.9503 614.56 88.992 610.433 85.8317C606.403 82.5625 603.067 81.5426 596.062 81.5426Z" fill="#FAEACC"/>
<defs>
<linearGradient id="paint0_linear_105_34" x1="27.6452" y1="25.9692" x2="125.742" y2="124.066" gradientUnits="userSpaceOnUse">
<stop stop-color="white"/>
<stop offset="0.18" stop-color="#F5D497"/>
<stop offset="0.485" stop-color="#F77712"/>
<stop offset="0.615" stop-color="#F75712"/>
<stop offset="0.925" stop-color="#282250"/>
</linearGradient>
</defs>
</svg>
