<svg width="805" height="167" viewBox="0 0 805 167" fill="none" xmlns="http://www.w3.org/2000/svg">
<mask id="path-1-outside-1_1_583" maskUnits="userSpaceOnUse" x="0" y="0.247437" width="163" height="167" fill="black">
<rect fill="white" y="0.247437" width="163" height="167"/>
<path d="M104.332 11.9028C104.885 12.3123 105.392 12.7443 105.898 13.213C106.068 13.3627 106.235 13.5095 106.41 13.662C107.932 15.0937 109.312 17.2341 109.506 19.4056C109.654 24.833 109.654 24.833 108.362 27.0497C108.156 27.4083 108.156 27.4083 107.946 27.7725C107.075 29.1139 105.923 30.201 104.814 31.3305C104.434 31.7202 104.056 32.1127 103.675 32.5024C103.267 32.9203 102.862 33.3354 102.454 33.7533C101.603 34.6231 100.754 35.4956 99.9058 36.3654C98.1073 38.2178 96.306 40.0645 94.5048 41.9113C92.5557 43.9077 90.6094 45.9041 88.6658 47.9034C87.8226 48.7703 86.9768 49.6372 86.1336 50.5013C85.734 50.9079 85.337 51.3174 84.9374 51.7268C84.4528 52.2238 83.9683 52.7208 83.481 53.2178C83.2675 53.438 83.054 53.6583 82.835 53.8842C82.5558 54.1694 82.5558 54.1694 82.2711 54.4631C81.1953 55.731 81.1432 56.8407 81.1733 58.4813C81.2965 59.5487 81.6551 60.153 82.3559 60.9352C83.2155 61.4915 83.9163 61.5932 84.9237 61.6073C85.1728 61.6158 85.4246 61.6242 85.6819 61.6327C87.4996 61.3277 88.7315 59.7831 89.9469 58.4672C90.3 58.0917 90.6532 57.7189 91.009 57.3434C91.5593 56.7588 92.1068 56.1743 92.6515 55.5841C97.6802 50.1681 97.6802 50.1681 101.526 49.8575C104.841 49.784 107.51 50.4363 110.004 52.7462C110.174 52.8959 110.341 53.0427 110.516 53.1952C112.038 54.6269 113.418 56.7673 113.612 58.9388C113.722 62.974 113.451 65.9333 110.689 69.0508C110.431 69.3191 110.169 69.5873 109.906 69.8528C109.763 70.0024 109.618 70.1521 109.468 70.3046C108.989 70.8016 108.504 71.2929 108.02 71.7871C107.675 72.1429 107.327 72.5015 106.979 72.8573C106.235 73.6225 105.49 74.3878 104.743 75.153C103.563 76.3616 102.383 77.573 101.206 78.7844C98.2797 81.7918 95.3534 84.7963 92.4216 87.8008C90.144 90.1389 87.8692 92.4742 85.5943 94.8151C84.4227 96.0181 83.2511 97.221 82.0767 98.4211C81.3458 99.1694 80.6176 99.9177 79.8895 100.669C79.5528 101.016 79.2161 101.364 78.8766 101.708C78.414 102.18 77.9514 102.654 77.4915 103.131C77.3573 103.267 77.2232 103.402 77.0863 103.541C75.9585 104.715 75.1236 105.978 75.1208 107.669C75.1674 108.94 75.4959 109.68 76.3335 110.634C77.5353 111.461 78.4633 111.662 79.8922 111.481C81.7291 110.809 82.9773 109.584 84.3187 108.169C84.5349 107.949 84.7485 107.728 84.9675 107.5C85.6819 106.76 86.3937 106.017 87.1054 105.274C87.6173 104.744 88.1292 104.21 88.6439 103.679C89.7471 102.535 90.8475 101.392 91.948 100.245C93.5412 98.5849 95.1399 96.9273 96.7385 95.2726C99.3336 92.5815 101.929 89.8904 104.524 87.1965C104.677 87.0356 104.833 86.8746 104.992 86.708C106.722 84.9121 108.452 83.1161 110.179 81.3202C110.806 80.6679 111.433 80.0156 112.06 79.3661C112.213 79.2052 112.367 79.0442 112.528 78.8776C115.11 76.195 117.694 73.5152 120.281 70.8355C121.877 69.1864 123.467 67.5344 125.055 65.8769C126.142 64.7417 127.234 63.6094 128.329 62.477C128.958 61.8275 129.588 61.1724 130.212 60.5173C136.27 54.1722 136.27 54.1722 140.801 54.0706C143.752 54.0988 146.133 54.9488 148.329 56.9819C148.498 57.1316 148.665 57.2784 148.841 57.4309C150.363 58.8626 151.742 61.003 151.937 63.1745C152.084 68.6018 152.084 68.6018 150.792 70.8185C150.658 71.0557 150.521 71.2929 150.385 71.5358C149.487 72.9166 148.29 74.0292 147.149 75.1897C146.889 75.4552 146.629 75.7234 146.369 75.9889C145.81 76.5621 145.249 77.1353 144.691 77.7058C143.804 78.6094 142.919 79.5158 142.035 80.4222C139.525 83.0004 137.009 85.5757 134.491 88.1453C133.1 89.5685 131.71 90.9917 130.322 92.4177C129.443 93.3185 128.564 94.2193 127.683 95.1145C127.135 95.6736 126.588 96.2355 126.043 96.7974C125.671 97.1815 125.296 97.5599 124.921 97.9383C123.596 99.3106 122.454 100.499 122.265 102.51C122.462 103.854 122.829 104.766 123.692 105.834C124.912 106.607 126.136 106.675 127.524 106.398C128.395 105.876 129.03 105.178 129.714 104.422C132.424 101.539 134.773 99.3671 138.816 99.2174C142.024 99.305 144.901 100.398 147.225 102.696C149.632 105.37 150.412 108.341 150.349 111.95C149.963 115.463 147.743 118.1 145.413 120.509C145.238 120.69 145.063 120.873 144.885 121.06C144.313 121.655 143.741 122.248 143.169 122.841C142.766 123.259 142.364 123.674 141.964 124.092C141.124 124.965 140.281 125.835 139.44 126.701C138.367 127.811 137.297 128.924 136.229 130.039C135.402 130.9 134.573 131.759 133.741 132.617C133.347 133.027 132.952 133.436 132.558 133.848C129.298 137.257 126.47 139.64 121.674 139.826C118.466 139.762 116.153 138.415 113.905 136.127C111.743 133.685 110.965 130.847 111.034 127.582C111.329 123.83 113.385 121.082 115.958 118.577C116.374 118.168 116.79 117.756 117.204 117.343C117.384 117.165 117.568 116.99 117.754 116.807C118.666 115.776 118.89 114.892 118.852 113.486C118.696 112.41 118.304 111.795 117.669 110.916C116.604 110.143 115.684 109.97 114.42 109.931C112.78 110.326 111.545 111.792 110.407 112.989C110.234 113.167 110.062 113.345 109.884 113.528C109.309 114.127 108.734 114.726 108.162 115.324C107.749 115.754 107.335 116.183 106.922 116.612C106.032 117.535 105.143 118.459 104.256 119.382C102.851 120.845 101.441 122.305 100.034 123.765C96.0295 127.913 92.0274 132.067 88.0307 136.223C85.8215 138.522 83.6097 140.815 81.3951 143.108C80.2262 144.319 79.0573 145.531 77.8911 146.748C76.7934 147.894 75.693 149.035 74.5898 150.173C74.1874 150.591 73.7849 151.009 73.3853 151.429C70.3467 154.618 67.7543 156.713 63.2813 156.752C61.3815 156.758 59.8978 156.622 58.2663 155.532C57.9898 155.371 57.7133 155.208 57.4286 155.038C54.8965 153.039 53.1062 150.647 52.5176 147.343C52.2685 144.599 52.5039 142.128 53.8864 139.719C55.5726 137.627 57.4587 135.721 59.3312 133.809C59.8184 133.312 60.303 132.818 60.7848 132.321C62.159 130.909 63.5359 129.5 64.9101 128.094C65.7587 127.227 66.6046 126.36 67.4505 125.49C67.7707 125.162 68.091 124.832 68.414 124.505C68.8603 124.05 69.3065 123.59 69.7527 123.132C70.0073 122.872 70.2618 122.613 70.5219 122.344C71.7072 120.995 71.8003 119.955 71.7674 118.174C71.6443 117.106 71.2884 116.502 70.5849 115.717C69.7253 115.163 69.0272 115.062 68.0199 115.048C67.768 115.039 67.5189 115.031 67.2588 115.022C65.3645 115.338 64.0451 117.03 62.7639 118.385C62.5614 118.594 62.3615 118.803 62.1535 119.021C61.7182 119.475 61.2857 119.93 60.8505 120.385C60.1634 121.108 59.4735 121.828 58.7837 122.548C56.8182 124.592 54.8582 126.639 52.9009 128.692C51.7019 129.949 50.5001 131.203 49.2956 132.454C48.8385 132.928 48.3841 133.405 47.9296 133.885C47.2946 134.557 46.6513 135.224 46.008 135.887C45.8245 136.085 45.6411 136.28 45.4522 136.483C42.9009 139.095 40.0677 139.798 36.602 139.812C34.9404 139.787 33.6757 139.536 32.2604 138.59C31.984 138.429 31.7075 138.265 31.4228 138.095C28.8906 136.096 27.1003 133.704 26.5118 130.401C26.249 127.503 26.457 124.567 28.3158 122.231C30.388 119.848 32.5889 117.606 34.7871 115.347C35.2333 114.887 35.6823 114.426 36.1285 113.966C37.0866 112.981 38.0447 111.995 39.0055 111.01C40.5193 109.451 42.0332 107.892 43.5497 106.331C45.6712 104.145 47.7928 101.959 49.9143 99.7766C50.0512 99.6382 50.1853 99.4998 50.3222 99.3558C52.2329 97.3904 54.1464 95.4223 56.0572 93.4569C56.1913 93.3185 56.3282 93.1802 56.465 93.0361C56.6019 92.8978 56.7361 92.7594 56.8757 92.6154C59.1204 90.3055 61.3651 87.9928 63.6098 85.6802C65.1154 84.1299 66.6238 82.5796 68.1321 81.0294C69.0656 80.0693 70.0018 79.1064 70.9353 78.1434C71.3678 77.6945 71.803 77.2483 72.2383 76.8021C72.8323 76.195 73.4209 75.5851 74.0122 74.9751C74.1846 74.7972 74.3598 74.6222 74.5377 74.4386C74.6965 74.2748 74.8553 74.1111 75.0168 73.9416C75.1537 73.8004 75.2905 73.6621 75.4302 73.5152C76.4266 72.2954 76.4512 71.1489 76.4211 69.6043C76.2979 68.5369 75.9421 67.9326 75.2385 67.1476C74.379 66.5941 73.6809 66.4925 72.6735 66.4783C72.4217 66.4699 72.1726 66.4614 71.9125 66.4529C70.1551 66.7466 68.915 68.2291 67.7133 69.4913C67.5408 69.6692 67.3711 69.8471 67.1931 70.0278C66.621 70.6208 66.0516 71.2167 65.4822 71.8125C65.0716 72.2389 64.661 72.6653 64.2504 73.0917C63.3662 74.0066 62.4847 74.9243 61.6005 75.842C60.2044 77.2963 58.8056 78.7477 57.4067 80.1963C53.4292 84.3191 49.4517 88.4447 45.4824 92.5759C43.2897 94.8575 41.0915 97.1391 38.8906 99.4151C37.7299 100.618 36.5665 101.824 35.4085 103.032C34.319 104.17 33.2268 105.303 32.129 106.435C31.7294 106.847 31.3297 107.265 30.9328 107.683C28.1542 110.597 25.6467 112.876 21.505 112.978C19.3889 112.995 17.667 112.986 15.8357 111.764C15.5592 111.603 15.2827 111.439 14.998 111.269C12.4659 109.27 10.6756 106.878 10.087 103.575C9.83791 100.83 10.0733 98.359 11.4558 95.9503C13.0353 94.0132 14.7626 92.2201 16.5036 90.4411C16.8787 90.0542 17.2564 89.6674 17.6315 89.2805C18.0311 88.871 18.4281 88.4616 18.8277 88.0521C19.6627 87.1965 20.4976 86.3381 21.3298 85.4825C23.6977 83.0456 26.0683 80.6114 28.4389 78.1773C29.7529 76.8304 31.0669 75.4806 32.3781 74.1308C33.2049 73.278 34.0343 72.4253 34.8665 71.5753C35.5016 70.923 36.1367 70.2707 36.769 69.6184C36.999 69.384 37.2289 69.1468 37.4671 68.9068C37.6751 68.6894 37.8832 68.4748 38.0994 68.2517C38.2801 68.0653 38.4635 67.8789 38.6497 67.6869C39.72 66.4219 39.7693 65.3065 39.7392 63.6743C39.616 62.6069 39.2601 62.0026 38.5566 61.2176C37.697 60.6641 36.999 60.5625 35.9916 60.5484C35.7397 60.5399 35.4906 60.5314 35.2306 60.5229C33.2569 60.8533 32.0113 62.5984 30.7056 64.0245C29.1096 65.7244 27.6752 67.0572 25.4168 67.7123C25.2525 67.7688 25.0883 67.8225 24.9186 67.8789C22.2276 68.4098 18.9947 68.263 16.6213 66.7861C16.0547 66.3682 15.5346 65.9277 15.0144 65.4533C14.7599 65.233 14.7599 65.233 14.5025 65.0043C12.5234 63.1378 11.3517 60.5512 11.1026 57.8065C10.9548 54.1129 11.9375 51.6986 14.3082 49.0103C15.4743 47.7199 16.6761 46.4661 17.8806 45.2151C18.1598 44.9243 18.439 44.6334 18.7155 44.3454C19.6188 43.4051 20.5222 42.4648 21.4283 41.5273C21.5816 41.3663 21.7376 41.2054 21.8964 41.0416C23.361 39.5224 24.8255 38.0032 26.29 36.4868C28.1542 34.561 30.013 32.6295 31.869 30.6952C33.183 29.3256 34.4997 27.9617 35.8164 26.6007C36.602 25.7902 37.385 24.9798 38.1624 24.1637C38.896 23.3957 39.6324 22.6332 40.3743 21.8736C40.6425 21.5969 40.9108 21.3173 41.1763 21.0378C43.6565 18.423 46.3036 16.5931 49.917 16.5141C52.868 16.5423 55.2496 17.3923 57.4451 19.4254C57.6148 19.5751 57.7845 19.7219 57.957 19.8744C59.479 21.3061 60.8587 23.4465 61.053 25.618C61.1625 29.6419 60.8997 32.6154 58.1376 35.7187C57.8858 35.9757 57.6312 36.2326 57.3711 36.4981C57.1604 36.7127 57.1604 36.7127 56.9468 36.9329C56.643 37.2407 56.3419 37.5485 56.038 37.8563C55.5562 38.3448 55.0772 38.8334 54.5981 39.3247C53.2376 40.7168 51.8716 42.1061 50.5056 43.4954C49.6679 44.3454 48.833 45.201 48.0008 46.0538C47.6833 46.3785 47.3657 46.7033 47.0454 47.0252C46.5992 47.477 46.1558 47.9288 45.7123 48.3834C45.4605 48.6404 45.2086 48.8974 44.9486 49.1628C43.8016 50.5211 43.3116 51.7466 43.369 53.5228C43.6072 54.8245 44.3627 55.7366 45.351 56.5414C47.0673 56.996 48.2472 56.7504 49.7692 55.9286C50.689 55.3413 51.409 54.6014 52.159 53.808C52.3315 53.6301 52.5012 53.455 52.6764 53.2714C53.2431 52.6869 53.807 52.0939 54.3709 51.5037C54.776 51.0802 55.1839 50.6566 55.5918 50.2359C56.4678 49.3266 57.3438 48.4145 58.217 47.5024C59.5994 46.0595 60.9846 44.6193 62.3725 43.182C65.8189 39.6071 69.2599 36.0265 72.6982 32.4459C75.3699 29.6617 78.0444 26.8802 80.7244 24.1044C82.1013 22.6756 83.4755 21.2439 84.847 19.8094C85.7038 18.9143 86.5634 18.0248 87.423 17.1353C87.8199 16.723 88.2141 16.3108 88.6083 15.8957C92.9554 11.3239 98.2305 8.15563 104.332 11.9028Z"/>
</mask>
<path d="M104.332 11.9028C104.885 12.3123 105.392 12.7443 105.898 13.213C106.068 13.3627 106.235 13.5095 106.41 13.662C107.932 15.0937 109.312 17.2341 109.506 19.4056C109.654 24.833 109.654 24.833 108.362 27.0497C108.156 27.4083 108.156 27.4083 107.946 27.7725C107.075 29.1139 105.923 30.201 104.814 31.3305C104.434 31.7202 104.056 32.1127 103.675 32.5024C103.267 32.9203 102.862 33.3354 102.454 33.7533C101.603 34.6231 100.754 35.4956 99.9058 36.3654C98.1073 38.2178 96.306 40.0645 94.5048 41.9113C92.5557 43.9077 90.6094 45.9041 88.6658 47.9034C87.8226 48.7703 86.9768 49.6372 86.1336 50.5013C85.734 50.9079 85.337 51.3174 84.9374 51.7268C84.4528 52.2238 83.9683 52.7208 83.481 53.2178C83.2675 53.438 83.054 53.6583 82.835 53.8842C82.5558 54.1694 82.5558 54.1694 82.2711 54.4631C81.1953 55.731 81.1432 56.8407 81.1733 58.4813C81.2965 59.5487 81.6551 60.153 82.3559 60.9352C83.2155 61.4915 83.9163 61.5932 84.9237 61.6073C85.1728 61.6158 85.4246 61.6242 85.6819 61.6327C87.4996 61.3277 88.7315 59.7831 89.9469 58.4672C90.3 58.0917 90.6532 57.7189 91.009 57.3434C91.5593 56.7588 92.1068 56.1743 92.6515 55.5841C97.6802 50.1681 97.6802 50.1681 101.526 49.8575C104.841 49.784 107.51 50.4363 110.004 52.7462C110.174 52.8959 110.341 53.0427 110.516 53.1952C112.038 54.6269 113.418 56.7673 113.612 58.9388C113.722 62.974 113.451 65.9333 110.689 69.0508C110.431 69.3191 110.169 69.5873 109.906 69.8528C109.763 70.0024 109.618 70.1521 109.468 70.3046C108.989 70.8016 108.504 71.2929 108.02 71.7871C107.675 72.1429 107.327 72.5015 106.979 72.8573C106.235 73.6225 105.49 74.3878 104.743 75.153C103.563 76.3616 102.383 77.573 101.206 78.7844C98.2797 81.7918 95.3534 84.7963 92.4216 87.8008C90.144 90.1389 87.8692 92.4742 85.5943 94.8151C84.4227 96.0181 83.2511 97.221 82.0767 98.4211C81.3458 99.1694 80.6176 99.9177 79.8895 100.669C79.5528 101.016 79.2161 101.364 78.8766 101.708C78.414 102.18 77.9514 102.654 77.4915 103.131C77.3573 103.267 77.2232 103.402 77.0863 103.541C75.9585 104.715 75.1236 105.978 75.1208 107.669C75.1674 108.94 75.4959 109.68 76.3335 110.634C77.5353 111.461 78.4633 111.662 79.8922 111.481C81.7291 110.809 82.9773 109.584 84.3187 108.169C84.5349 107.949 84.7485 107.728 84.9675 107.5C85.6819 106.76 86.3937 106.017 87.1054 105.274C87.6173 104.744 88.1292 104.21 88.6439 103.679C89.7471 102.535 90.8475 101.392 91.948 100.245C93.5412 98.5849 95.1399 96.9273 96.7385 95.2726C99.3336 92.5815 101.929 89.8904 104.524 87.1965C104.677 87.0356 104.833 86.8746 104.992 86.708C106.722 84.9121 108.452 83.1161 110.179 81.3202C110.806 80.6679 111.433 80.0156 112.06 79.3661C112.213 79.2052 112.367 79.0442 112.528 78.8776C115.11 76.195 117.694 73.5152 120.281 70.8355C121.877 69.1864 123.467 67.5344 125.055 65.8769C126.142 64.7417 127.234 63.6094 128.329 62.477C128.958 61.8275 129.588 61.1724 130.212 60.5173C136.27 54.1722 136.27 54.1722 140.801 54.0706C143.752 54.0988 146.133 54.9488 148.329 56.9819C148.498 57.1316 148.665 57.2784 148.841 57.4309C150.363 58.8626 151.742 61.003 151.937 63.1745C152.084 68.6018 152.084 68.6018 150.792 70.8185C150.658 71.0557 150.521 71.2929 150.385 71.5358C149.487 72.9166 148.29 74.0292 147.149 75.1897C146.889 75.4552 146.629 75.7234 146.369 75.9889C145.81 76.5621 145.249 77.1353 144.691 77.7058C143.804 78.6094 142.919 79.5158 142.035 80.4222C139.525 83.0004 137.009 85.5757 134.491 88.1453C133.1 89.5685 131.71 90.9917 130.322 92.4177C129.443 93.3185 128.564 94.2193 127.683 95.1145C127.135 95.6736 126.588 96.2355 126.043 96.7974C125.671 97.1815 125.296 97.5599 124.921 97.9383C123.596 99.3106 122.454 100.499 122.265 102.51C122.462 103.854 122.829 104.766 123.692 105.834C124.912 106.607 126.136 106.675 127.524 106.398C128.395 105.876 129.03 105.178 129.714 104.422C132.424 101.539 134.773 99.3671 138.816 99.2174C142.024 99.305 144.901 100.398 147.225 102.696C149.632 105.37 150.412 108.341 150.349 111.95C149.963 115.463 147.743 118.1 145.413 120.509C145.238 120.69 145.063 120.873 144.885 121.06C144.313 121.655 143.741 122.248 143.169 122.841C142.766 123.259 142.364 123.674 141.964 124.092C141.124 124.965 140.281 125.835 139.44 126.701C138.367 127.811 137.297 128.924 136.229 130.039C135.402 130.9 134.573 131.759 133.741 132.617C133.347 133.027 132.952 133.436 132.558 133.848C129.298 137.257 126.47 139.64 121.674 139.826C118.466 139.762 116.153 138.415 113.905 136.127C111.743 133.685 110.965 130.847 111.034 127.582C111.329 123.83 113.385 121.082 115.958 118.577C116.374 118.168 116.79 117.756 117.204 117.343C117.384 117.165 117.568 116.99 117.754 116.807C118.666 115.776 118.89 114.892 118.852 113.486C118.696 112.41 118.304 111.795 117.669 110.916C116.604 110.143 115.684 109.97 114.42 109.931C112.78 110.326 111.545 111.792 110.407 112.989C110.234 113.167 110.062 113.345 109.884 113.528C109.309 114.127 108.734 114.726 108.162 115.324C107.749 115.754 107.335 116.183 106.922 116.612C106.032 117.535 105.143 118.459 104.256 119.382C102.851 120.845 101.441 122.305 100.034 123.765C96.0295 127.913 92.0274 132.067 88.0307 136.223C85.8215 138.522 83.6097 140.815 81.3951 143.108C80.2262 144.319 79.0573 145.531 77.8911 146.748C76.7934 147.894 75.693 149.035 74.5898 150.173C74.1874 150.591 73.7849 151.009 73.3853 151.429C70.3467 154.618 67.7543 156.713 63.2813 156.752C61.3815 156.758 59.8978 156.622 58.2663 155.532C57.9898 155.371 57.7133 155.208 57.4286 155.038C54.8965 153.039 53.1062 150.647 52.5176 147.343C52.2685 144.599 52.5039 142.128 53.8864 139.719C55.5726 137.627 57.4587 135.721 59.3312 133.809C59.8184 133.312 60.303 132.818 60.7848 132.321C62.159 130.909 63.5359 129.5 64.9101 128.094C65.7587 127.227 66.6046 126.36 67.4505 125.49C67.7707 125.162 68.091 124.832 68.414 124.505C68.8603 124.05 69.3065 123.59 69.7527 123.132C70.0073 122.872 70.2618 122.613 70.5219 122.344C71.7072 120.995 71.8003 119.955 71.7674 118.174C71.6443 117.106 71.2884 116.502 70.5849 115.717C69.7253 115.163 69.0272 115.062 68.0199 115.048C67.768 115.039 67.5189 115.031 67.2588 115.022C65.3645 115.338 64.0451 117.03 62.7639 118.385C62.5614 118.594 62.3615 118.803 62.1535 119.021C61.7182 119.475 61.2857 119.93 60.8505 120.385C60.1634 121.108 59.4735 121.828 58.7837 122.548C56.8182 124.592 54.8582 126.639 52.9009 128.692C51.7019 129.949 50.5001 131.203 49.2956 132.454C48.8385 132.928 48.3841 133.405 47.9296 133.885C47.2946 134.557 46.6513 135.224 46.008 135.887C45.8245 136.085 45.6411 136.28 45.4522 136.483C42.9009 139.095 40.0677 139.798 36.602 139.812C34.9404 139.787 33.6757 139.536 32.2604 138.59C31.984 138.429 31.7075 138.265 31.4228 138.095C28.8906 136.096 27.1003 133.704 26.5118 130.401C26.249 127.503 26.457 124.567 28.3158 122.231C30.388 119.848 32.5889 117.606 34.7871 115.347C35.2333 114.887 35.6823 114.426 36.1285 113.966C37.0866 112.981 38.0447 111.995 39.0055 111.01C40.5193 109.451 42.0332 107.892 43.5497 106.331C45.6712 104.145 47.7928 101.959 49.9143 99.7766C50.0512 99.6382 50.1853 99.4998 50.3222 99.3558C52.2329 97.3904 54.1464 95.4223 56.0572 93.4569C56.1913 93.3185 56.3282 93.1802 56.465 93.0361C56.6019 92.8978 56.7361 92.7594 56.8757 92.6154C59.1204 90.3055 61.3651 87.9928 63.6098 85.6802C65.1154 84.1299 66.6238 82.5796 68.1321 81.0294C69.0656 80.0693 70.0018 79.1064 70.9353 78.1434C71.3678 77.6945 71.803 77.2483 72.2383 76.8021C72.8323 76.195 73.4209 75.5851 74.0122 74.9751C74.1846 74.7972 74.3598 74.6222 74.5377 74.4386C74.6965 74.2748 74.8553 74.1111 75.0168 73.9416C75.1537 73.8004 75.2905 73.6621 75.4302 73.5152C76.4266 72.2954 76.4512 71.1489 76.4211 69.6043C76.2979 68.5369 75.9421 67.9326 75.2385 67.1476C74.379 66.5941 73.6809 66.4925 72.6735 66.4783C72.4217 66.4699 72.1726 66.4614 71.9125 66.4529C70.1551 66.7466 68.915 68.2291 67.7133 69.4913C67.5408 69.6692 67.3711 69.8471 67.1931 70.0278C66.621 70.6208 66.0516 71.2167 65.4822 71.8125C65.0716 72.2389 64.661 72.6653 64.2504 73.0917C63.3662 74.0066 62.4847 74.9243 61.6005 75.842C60.2044 77.2963 58.8056 78.7477 57.4067 80.1963C53.4292 84.3191 49.4517 88.4447 45.4824 92.5759C43.2897 94.8575 41.0915 97.1391 38.8906 99.4151C37.7299 100.618 36.5665 101.824 35.4085 103.032C34.319 104.17 33.2268 105.303 32.129 106.435C31.7294 106.847 31.3297 107.265 30.9328 107.683C28.1542 110.597 25.6467 112.876 21.505 112.978C19.3889 112.995 17.667 112.986 15.8357 111.764C15.5592 111.603 15.2827 111.439 14.998 111.269C12.4659 109.27 10.6756 106.878 10.087 103.575C9.83791 100.83 10.0733 98.359 11.4558 95.9503C13.0353 94.0132 14.7626 92.2201 16.5036 90.4411C16.8787 90.0542 17.2564 89.6674 17.6315 89.2805C18.0311 88.871 18.4281 88.4616 18.8277 88.0521C19.6627 87.1965 20.4976 86.3381 21.3298 85.4825C23.6977 83.0456 26.0683 80.6114 28.4389 78.1773C29.7529 76.8304 31.0669 75.4806 32.3781 74.1308C33.2049 73.278 34.0343 72.4253 34.8665 71.5753C35.5016 70.923 36.1367 70.2707 36.769 69.6184C36.999 69.384 37.2289 69.1468 37.4671 68.9068C37.6751 68.6894 37.8832 68.4748 38.0994 68.2517C38.2801 68.0653 38.4635 67.8789 38.6497 67.6869C39.72 66.4219 39.7693 65.3065 39.7392 63.6743C39.616 62.6069 39.2601 62.0026 38.5566 61.2176C37.697 60.6641 36.999 60.5625 35.9916 60.5484C35.7397 60.5399 35.4906 60.5314 35.2306 60.5229C33.2569 60.8533 32.0113 62.5984 30.7056 64.0245C29.1096 65.7244 27.6752 67.0572 25.4168 67.7123C25.2525 67.7688 25.0883 67.8225 24.9186 67.8789C22.2276 68.4098 18.9947 68.263 16.6213 66.7861C16.0547 66.3682 15.5346 65.9277 15.0144 65.4533C14.7599 65.233 14.7599 65.233 14.5025 65.0043C12.5234 63.1378 11.3517 60.5512 11.1026 57.8065C10.9548 54.1129 11.9375 51.6986 14.3082 49.0103C15.4743 47.7199 16.6761 46.4661 17.8806 45.2151C18.1598 44.9243 18.439 44.6334 18.7155 44.3454C19.6188 43.4051 20.5222 42.4648 21.4283 41.5273C21.5816 41.3663 21.7376 41.2054 21.8964 41.0416C23.361 39.5224 24.8255 38.0032 26.29 36.4868C28.1542 34.561 30.013 32.6295 31.869 30.6952C33.183 29.3256 34.4997 27.9617 35.8164 26.6007C36.602 25.7902 37.385 24.9798 38.1624 24.1637C38.896 23.3957 39.6324 22.6332 40.3743 21.8736C40.6425 21.5969 40.9108 21.3173 41.1763 21.0378C43.6565 18.423 46.3036 16.5931 49.917 16.5141C52.868 16.5423 55.2496 17.3923 57.4451 19.4254C57.6148 19.5751 57.7845 19.7219 57.957 19.8744C59.479 21.3061 60.8587 23.4465 61.053 25.618C61.1625 29.6419 60.8997 32.6154 58.1376 35.7187C57.8858 35.9757 57.6312 36.2326 57.3711 36.4981C57.1604 36.7127 57.1604 36.7127 56.9468 36.9329C56.643 37.2407 56.3419 37.5485 56.038 37.8563C55.5562 38.3448 55.0772 38.8334 54.5981 39.3247C53.2376 40.7168 51.8716 42.1061 50.5056 43.4954C49.6679 44.3454 48.833 45.201 48.0008 46.0538C47.6833 46.3785 47.3657 46.7033 47.0454 47.0252C46.5992 47.477 46.1558 47.9288 45.7123 48.3834C45.4605 48.6404 45.2086 48.8974 44.9486 49.1628C43.8016 50.5211 43.3116 51.7466 43.369 53.5228C43.6072 54.8245 44.3627 55.7366 45.351 56.5414C47.0673 56.996 48.2472 56.7504 49.7692 55.9286C50.689 55.3413 51.409 54.6014 52.159 53.808C52.3315 53.6301 52.5012 53.455 52.6764 53.2714C53.2431 52.6869 53.807 52.0939 54.3709 51.5037C54.776 51.0802 55.1839 50.6566 55.5918 50.2359C56.4678 49.3266 57.3438 48.4145 58.217 47.5024C59.5994 46.0595 60.9846 44.6193 62.3725 43.182C65.8189 39.6071 69.2599 36.0265 72.6982 32.4459C75.3699 29.6617 78.0444 26.8802 80.7244 24.1044C82.1013 22.6756 83.4755 21.2439 84.847 19.8094C85.7038 18.9143 86.5634 18.0248 87.423 17.1353C87.8199 16.723 88.2141 16.3108 88.6083 15.8957C92.9554 11.3239 98.2305 8.15563 104.332 11.9028Z" fill="#F77712"/>
<path d="M104.332 11.9028C104.885 12.3123 105.392 12.7443 105.898 13.213C106.068 13.3627 106.235 13.5095 106.41 13.662C107.932 15.0937 109.312 17.2341 109.506 19.4056C109.654 24.833 109.654 24.833 108.362 27.0497C108.156 27.4083 108.156 27.4083 107.946 27.7725C107.075 29.1139 105.923 30.201 104.814 31.3305C104.434 31.7202 104.056 32.1127 103.675 32.5024C103.267 32.9203 102.862 33.3354 102.454 33.7533C101.603 34.6231 100.754 35.4956 99.9058 36.3654C98.1073 38.2178 96.306 40.0645 94.5048 41.9113C92.5557 43.9077 90.6094 45.9041 88.6658 47.9034C87.8226 48.7703 86.9768 49.6372 86.1336 50.5013C85.734 50.9079 85.337 51.3174 84.9374 51.7268C84.4528 52.2238 83.9683 52.7208 83.481 53.2178C83.2675 53.438 83.054 53.6583 82.835 53.8842C82.5558 54.1694 82.5558 54.1694 82.2711 54.4631C81.1953 55.731 81.1432 56.8407 81.1733 58.4813C81.2965 59.5487 81.6551 60.153 82.3559 60.9352C83.2155 61.4915 83.9163 61.5932 84.9237 61.6073C85.1728 61.6158 85.4246 61.6242 85.6819 61.6327C87.4996 61.3277 88.7315 59.7831 89.9469 58.4672C90.3 58.0917 90.6532 57.7189 91.009 57.3434C91.5593 56.7588 92.1068 56.1743 92.6515 55.5841C97.6802 50.1681 97.6802 50.1681 101.526 49.8575C104.841 49.784 107.51 50.4363 110.004 52.7462C110.174 52.8959 110.341 53.0427 110.516 53.1952C112.038 54.6269 113.418 56.7673 113.612 58.9388C113.722 62.974 113.451 65.9333 110.689 69.0508C110.431 69.3191 110.169 69.5873 109.906 69.8528C109.763 70.0024 109.618 70.1521 109.468 70.3046C108.989 70.8016 108.504 71.2929 108.02 71.7871C107.675 72.1429 107.327 72.5015 106.979 72.8573C106.235 73.6225 105.49 74.3878 104.743 75.153C103.563 76.3616 102.383 77.573 101.206 78.7844C98.2797 81.7918 95.3534 84.7963 92.4216 87.8008C90.144 90.1389 87.8692 92.4742 85.5943 94.8151C84.4227 96.0181 83.2511 97.221 82.0767 98.4211C81.3458 99.1694 80.6176 99.9177 79.8895 100.669C79.5528 101.016 79.2161 101.364 78.8766 101.708C78.414 102.18 77.9514 102.654 77.4915 103.131C77.3573 103.267 77.2232 103.402 77.0863 103.541C75.9585 104.715 75.1236 105.978 75.1208 107.669C75.1674 108.94 75.4959 109.68 76.3335 110.634C77.5353 111.461 78.4633 111.662 79.8922 111.481C81.7291 110.809 82.9773 109.584 84.3187 108.169C84.5349 107.949 84.7485 107.728 84.9675 107.5C85.6819 106.76 86.3937 106.017 87.1054 105.274C87.6173 104.744 88.1292 104.21 88.6439 103.679C89.7471 102.535 90.8475 101.392 91.948 100.245C93.5412 98.5849 95.1399 96.9273 96.7385 95.2726C99.3336 92.5815 101.929 89.8904 104.524 87.1965C104.677 87.0356 104.833 86.8746 104.992 86.708C106.722 84.9121 108.452 83.1161 110.179 81.3202C110.806 80.6679 111.433 80.0156 112.06 79.3661C112.213 79.2052 112.367 79.0442 112.528 78.8776C115.11 76.195 117.694 73.5152 120.281 70.8355C121.877 69.1864 123.467 67.5344 125.055 65.8769C126.142 64.7417 127.234 63.6094 128.329 62.477C128.958 61.8275 129.588 61.1724 130.212 60.5173C136.27 54.1722 136.27 54.1722 140.801 54.0706C143.752 54.0988 146.133 54.9488 148.329 56.9819C148.498 57.1316 148.665 57.2784 148.841 57.4309C150.363 58.8626 151.742 61.003 151.937 63.1745C152.084 68.6018 152.084 68.6018 150.792 70.8185C150.658 71.0557 150.521 71.2929 150.385 71.5358C149.487 72.9166 148.29 74.0292 147.149 75.1897C146.889 75.4552 146.629 75.7234 146.369 75.9889C145.81 76.5621 145.249 77.1353 144.691 77.7058C143.804 78.6094 142.919 79.5158 142.035 80.4222C139.525 83.0004 137.009 85.5757 134.491 88.1453C133.1 89.5685 131.71 90.9917 130.322 92.4177C129.443 93.3185 128.564 94.2193 127.683 95.1145C127.135 95.6736 126.588 96.2355 126.043 96.7974C125.671 97.1815 125.296 97.5599 124.921 97.9383C123.596 99.3106 122.454 100.499 122.265 102.51C122.462 103.854 122.829 104.766 123.692 105.834C124.912 106.607 126.136 106.675 127.524 106.398C128.395 105.876 129.03 105.178 129.714 104.422C132.424 101.539 134.773 99.3671 138.816 99.2174C142.024 99.305 144.901 100.398 147.225 102.696C149.632 105.37 150.412 108.341 150.349 111.95C149.963 115.463 147.743 118.1 145.413 120.509C145.238 120.69 145.063 120.873 144.885 121.06C144.313 121.655 143.741 122.248 143.169 122.841C142.766 123.259 142.364 123.674 141.964 124.092C141.124 124.965 140.281 125.835 139.44 126.701C138.367 127.811 137.297 128.924 136.229 130.039C135.402 130.9 134.573 131.759 133.741 132.617C133.347 133.027 132.952 133.436 132.558 133.848C129.298 137.257 126.47 139.64 121.674 139.826C118.466 139.762 116.153 138.415 113.905 136.127C111.743 133.685 110.965 130.847 111.034 127.582C111.329 123.83 113.385 121.082 115.958 118.577C116.374 118.168 116.79 117.756 117.204 117.343C117.384 117.165 117.568 116.99 117.754 116.807C118.666 115.776 118.89 114.892 118.852 113.486C118.696 112.41 118.304 111.795 117.669 110.916C116.604 110.143 115.684 109.97 114.42 109.931C112.78 110.326 111.545 111.792 110.407 112.989C110.234 113.167 110.062 113.345 109.884 113.528C109.309 114.127 108.734 114.726 108.162 115.324C107.749 115.754 107.335 116.183 106.922 116.612C106.032 117.535 105.143 118.459 104.256 119.382C102.851 120.845 101.441 122.305 100.034 123.765C96.0295 127.913 92.0274 132.067 88.0307 136.223C85.8215 138.522 83.6097 140.815 81.3951 143.108C80.2262 144.319 79.0573 145.531 77.8911 146.748C76.7934 147.894 75.693 149.035 74.5898 150.173C74.1874 150.591 73.7849 151.009 73.3853 151.429C70.3467 154.618 67.7543 156.713 63.2813 156.752C61.3815 156.758 59.8978 156.622 58.2663 155.532C57.9898 155.371 57.7133 155.208 57.4286 155.038C54.8965 153.039 53.1062 150.647 52.5176 147.343C52.2685 144.599 52.5039 142.128 53.8864 139.719C55.5726 137.627 57.4587 135.721 59.3312 133.809C59.8184 133.312 60.303 132.818 60.7848 132.321C62.159 130.909 63.5359 129.5 64.9101 128.094C65.7587 127.227 66.6046 126.36 67.4505 125.49C67.7707 125.162 68.091 124.832 68.414 124.505C68.8603 124.05 69.3065 123.59 69.7527 123.132C70.0073 122.872 70.2618 122.613 70.5219 122.344C71.7072 120.995 71.8003 119.955 71.7674 118.174C71.6443 117.106 71.2884 116.502 70.5849 115.717C69.7253 115.163 69.0272 115.062 68.0199 115.048C67.768 115.039 67.5189 115.031 67.2588 115.022C65.3645 115.338 64.0451 117.03 62.7639 118.385C62.5614 118.594 62.3615 118.803 62.1535 119.021C61.7182 119.475 61.2857 119.93 60.8505 120.385C60.1634 121.108 59.4735 121.828 58.7837 122.548C56.8182 124.592 54.8582 126.639 52.9009 128.692C51.7019 129.949 50.5001 131.203 49.2956 132.454C48.8385 132.928 48.3841 133.405 47.9296 133.885C47.2946 134.557 46.6513 135.224 46.008 135.887C45.8245 136.085 45.6411 136.28 45.4522 136.483C42.9009 139.095 40.0677 139.798 36.602 139.812C34.9404 139.787 33.6757 139.536 32.2604 138.59C31.984 138.429 31.7075 138.265 31.4228 138.095C28.8906 136.096 27.1003 133.704 26.5118 130.401C26.249 127.503 26.457 124.567 28.3158 122.231C30.388 119.848 32.5889 117.606 34.7871 115.347C35.2333 114.887 35.6823 114.426 36.1285 113.966C37.0866 112.981 38.0447 111.995 39.0055 111.01C40.5193 109.451 42.0332 107.892 43.5497 106.331C45.6712 104.145 47.7928 101.959 49.9143 99.7766C50.0512 99.6382 50.1853 99.4998 50.3222 99.3558C52.2329 97.3904 54.1464 95.4223 56.0572 93.4569C56.1913 93.3185 56.3282 93.1802 56.465 93.0361C56.6019 92.8978 56.7361 92.7594 56.8757 92.6154C59.1204 90.3055 61.3651 87.9928 63.6098 85.6802C65.1154 84.1299 66.6238 82.5796 68.1321 81.0294C69.0656 80.0693 70.0018 79.1064 70.9353 78.1434C71.3678 77.6945 71.803 77.2483 72.2383 76.8021C72.8323 76.195 73.4209 75.5851 74.0122 74.9751C74.1846 74.7972 74.3598 74.6222 74.5377 74.4386C74.6965 74.2748 74.8553 74.1111 75.0168 73.9416C75.1537 73.8004 75.2905 73.6621 75.4302 73.5152C76.4266 72.2954 76.4512 71.1489 76.4211 69.6043C76.2979 68.5369 75.9421 67.9326 75.2385 67.1476C74.379 66.5941 73.6809 66.4925 72.6735 66.4783C72.4217 66.4699 72.1726 66.4614 71.9125 66.4529C70.1551 66.7466 68.915 68.2291 67.7133 69.4913C67.5408 69.6692 67.3711 69.8471 67.1931 70.0278C66.621 70.6208 66.0516 71.2167 65.4822 71.8125C65.0716 72.2389 64.661 72.6653 64.2504 73.0917C63.3662 74.0066 62.4847 74.9243 61.6005 75.842C60.2044 77.2963 58.8056 78.7477 57.4067 80.1963C53.4292 84.3191 49.4517 88.4447 45.4824 92.5759C43.2897 94.8575 41.0915 97.1391 38.8906 99.4151C37.7299 100.618 36.5665 101.824 35.4085 103.032C34.319 104.17 33.2268 105.303 32.129 106.435C31.7294 106.847 31.3297 107.265 30.9328 107.683C28.1542 110.597 25.6467 112.876 21.505 112.978C19.3889 112.995 17.667 112.986 15.8357 111.764C15.5592 111.603 15.2827 111.439 14.998 111.269C12.4659 109.27 10.6756 106.878 10.087 103.575C9.83791 100.83 10.0733 98.359 11.4558 95.9503C13.0353 94.0132 14.7626 92.2201 16.5036 90.4411C16.8787 90.0542 17.2564 89.6674 17.6315 89.2805C18.0311 88.871 18.4281 88.4616 18.8277 88.0521C19.6627 87.1965 20.4976 86.3381 21.3298 85.4825C23.6977 83.0456 26.0683 80.6114 28.4389 78.1773C29.7529 76.8304 31.0669 75.4806 32.3781 74.1308C33.2049 73.278 34.0343 72.4253 34.8665 71.5753C35.5016 70.923 36.1367 70.2707 36.769 69.6184C36.999 69.384 37.2289 69.1468 37.4671 68.9068C37.6751 68.6894 37.8832 68.4748 38.0994 68.2517C38.2801 68.0653 38.4635 67.8789 38.6497 67.6869C39.72 66.4219 39.7693 65.3065 39.7392 63.6743C39.616 62.6069 39.2601 62.0026 38.5566 61.2176C37.697 60.6641 36.999 60.5625 35.9916 60.5484C35.7397 60.5399 35.4906 60.5314 35.2306 60.5229C33.2569 60.8533 32.0113 62.5984 30.7056 64.0245C29.1096 65.7244 27.6752 67.0572 25.4168 67.7123C25.2525 67.7688 25.0883 67.8225 24.9186 67.8789C22.2276 68.4098 18.9947 68.263 16.6213 66.7861C16.0547 66.3682 15.5346 65.9277 15.0144 65.4533C14.7599 65.233 14.7599 65.233 14.5025 65.0043C12.5234 63.1378 11.3517 60.5512 11.1026 57.8065C10.9548 54.1129 11.9375 51.6986 14.3082 49.0103C15.4743 47.7199 16.6761 46.4661 17.8806 45.2151C18.1598 44.9243 18.439 44.6334 18.7155 44.3454C19.6188 43.4051 20.5222 42.4648 21.4283 41.5273C21.5816 41.3663 21.7376 41.2054 21.8964 41.0416C23.361 39.5224 24.8255 38.0032 26.29 36.4868C28.1542 34.561 30.013 32.6295 31.869 30.6952C33.183 29.3256 34.4997 27.9617 35.8164 26.6007C36.602 25.7902 37.385 24.9798 38.1624 24.1637C38.896 23.3957 39.6324 22.6332 40.3743 21.8736C40.6425 21.5969 40.9108 21.3173 41.1763 21.0378C43.6565 18.423 46.3036 16.5931 49.917 16.5141C52.868 16.5423 55.2496 17.3923 57.4451 19.4254C57.6148 19.5751 57.7845 19.7219 57.957 19.8744C59.479 21.3061 60.8587 23.4465 61.053 25.618C61.1625 29.6419 60.8997 32.6154 58.1376 35.7187C57.8858 35.9757 57.6312 36.2326 57.3711 36.4981C57.1604 36.7127 57.1604 36.7127 56.9468 36.9329C56.643 37.2407 56.3419 37.5485 56.038 37.8563C55.5562 38.3448 55.0772 38.8334 54.5981 39.3247C53.2376 40.7168 51.8716 42.1061 50.5056 43.4954C49.6679 44.3454 48.833 45.201 48.0008 46.0538C47.6833 46.3785 47.3657 46.7033 47.0454 47.0252C46.5992 47.477 46.1558 47.9288 45.7123 48.3834C45.4605 48.6404 45.2086 48.8974 44.9486 49.1628C43.8016 50.5211 43.3116 51.7466 43.369 53.5228C43.6072 54.8245 44.3627 55.7366 45.351 56.5414C47.0673 56.996 48.2472 56.7504 49.7692 55.9286C50.689 55.3413 51.409 54.6014 52.159 53.808C52.3315 53.6301 52.5012 53.455 52.6764 53.2714C53.2431 52.6869 53.807 52.0939 54.3709 51.5037C54.776 51.0802 55.1839 50.6566 55.5918 50.2359C56.4678 49.3266 57.3438 48.4145 58.217 47.5024C59.5994 46.0595 60.9846 44.6193 62.3725 43.182C65.8189 39.6071 69.2599 36.0265 72.6982 32.4459C75.3699 29.6617 78.0444 26.8802 80.7244 24.1044C82.1013 22.6756 83.4755 21.2439 84.847 19.8094C85.7038 18.9143 86.5634 18.0248 87.423 17.1353C87.8199 16.723 88.2141 16.3108 88.6083 15.8957C92.9554 11.3239 98.2305 8.15563 104.332 11.9028Z" stroke="#FAEACC" stroke-width="20" mask="url(#path-1-outside-1_1_583)"/>
<path d="M570.743 126.207H591.493C590.725 131.773 588.662 136.739 585.303 141.105C582.04 145.471 577.578 148.909 571.916 151.419C566.255 153.929 559.345 155.184 551.189 155.184C542.072 155.184 534.011 153.547 527.006 150.273C520.001 146.889 514.531 142.033 510.597 135.702C506.662 129.372 504.695 121.732 504.695 112.783C504.695 103.833 506.614 96.1934 510.453 89.8631C514.291 83.4237 519.617 78.5124 526.43 75.129C533.34 71.7455 541.401 70.0539 550.613 70.0539C560.017 70.0539 567.838 71.7455 574.076 75.129C580.313 78.5124 584.919 83.642 587.894 90.518C590.965 97.2848 592.26 105.961 591.78 116.548H526.43C526.91 120.696 526.595 124.744 528.802 128.127C531.106 131.511 533.88 133.738 537.719 135.702C541.653 137.667 545.383 138.813 550.757 138.813C556.706 138.813 560.534 137.994 564.468 135.702C568.498 133.301 569.591 129.918 570.743 126.207ZM550.757 86.2222C543.848 86.2222 537.744 88.0077 533.426 91.5003C529.107 94.8837 527.678 99.0855 526.43 104.106H570.743C570.263 98.649 569.255 93.6831 565.129 90.518C561.098 87.2437 557.762 86.2222 550.757 86.2222Z" fill="#FAEACC"/>
<path d="M196.914 10H222.342V153.189H196.914V10Z" fill="#FAEACC"/>
<path d="M274.14 157C266.996 157 261.002 154.822 256.158 150.467C251.315 145.99 248.772 140.243 248.53 133.226V73.8815H273.958V123.789C274.2 127.298 275.108 130.141 276.683 132.319C278.257 134.375 280.921 135.404 284.674 135.404C288.428 135.404 291.637 134.133 294.301 131.593C297.086 129.052 299.205 125.604 300.658 121.248C302.232 116.772 303.019 111.751 303.019 106.185V73.8815H328.447V153.189H305.38L303.382 138.67L303.746 140.304C301.929 143.57 299.629 146.474 296.844 149.015C294.059 151.556 290.729 153.491 286.854 154.822C283.1 156.274 278.862 157 274.14 157Z" fill="#FAEACC"/>
<path d="M377.666 73.8815L379.664 87.8556L379.301 86.7667C382.449 81.4432 386.384 77.3296 391.107 74.4259C395.829 71.4012 401.52 69.8889 408.18 69.8889C412.539 69.8889 416.354 70.4938 419.623 71.7037C423.013 72.9136 425.859 74.7284 428.159 77.1481C430.46 79.4469 432.034 82.4716 432.882 86.2222L431.974 86.4037C435.364 81.4432 439.421 77.4506 444.143 74.4259C448.986 71.4012 454.012 69.8889 459.218 69.8889C467.089 69.8889 473.325 72.1272 477.926 76.6037C482.649 80.9593 485.07 86.6457 485.191 93.663V153.189H459.945V104.189C459.824 100.68 459.279 97.837 458.31 95.6593C457.341 93.3605 455.101 92.0901 451.59 91.8481C447.473 91.8481 443.961 93.3 441.055 96.2037C438.27 98.9864 436.151 102.616 434.698 107.093C433.366 111.448 432.7 115.985 432.7 120.704V153.189H407.272V104.189C407.151 100.68 406.485 97.837 405.274 95.6593C404.184 93.3605 401.884 92.0901 398.372 91.8481C394.376 91.8481 390.986 93.3 388.201 96.2037C385.537 98.9864 383.478 102.556 382.025 106.911C380.693 111.267 380.027 115.743 380.027 120.341V153.189H354.599V73.8815H377.666Z" fill="#FAEACC"/>
<path d="M634.858 73.8815L636.856 88.037L636.492 86.7667C639.277 81.8062 643.213 77.8136 648.298 74.7889C653.384 71.6432 659.62 70.0704 667.006 70.0704C674.514 70.0704 680.75 72.3086 685.714 76.7852C690.8 81.1407 693.403 86.8272 693.524 93.8444V153.189H668.096V103.281C667.975 99.7728 667.006 96.9901 665.19 94.9333C663.495 92.7556 660.589 91.6667 656.472 91.6667C652.597 91.6667 649.207 92.937 646.3 95.4778C643.394 98.0185 641.154 101.467 639.58 105.822C638.006 110.178 637.219 115.199 637.219 120.885V153.189H611.791V73.8815H634.858Z" fill="#FAEACC"/>
<path d="M753.054 155.367C745.667 155.367 738.947 153.915 732.893 151.011C726.959 147.986 722.237 143.389 718.726 137.219C715.214 131.048 713.458 123.184 713.458 113.626C713.458 104.673 715.275 96.9296 718.907 90.3963C722.54 83.863 727.323 78.842 733.256 75.3333C739.189 71.7037 745.486 69.8889 752.146 69.8889C760.016 69.8889 765.949 71.2198 769.945 73.8815C774.062 76.4222 777.453 79.2654 780.117 82.4111L779.027 85.4963L781.388 73.8815H805V153.189H779.572V135.948L781.57 141.393C781.328 141.393 780.601 142.119 779.39 143.57C778.179 144.901 776.363 146.535 773.941 148.47C771.641 150.285 768.734 151.858 765.223 153.189C761.833 154.641 757.776 155.367 753.054 155.367ZM760.319 134.678C763.346 134.678 766.071 134.254 768.492 133.407C770.914 132.44 773.033 131.109 774.849 129.415C776.666 127.6 778.24 125.362 779.572 122.7V103.281C778.603 100.62 777.15 98.3815 775.213 96.5667C773.275 94.6309 770.975 93.179 768.311 92.2111C765.647 91.1222 762.68 90.5778 759.411 90.5778C755.778 90.5778 752.388 91.5457 749.239 93.4815C746.212 95.2963 743.791 97.837 741.974 101.104C740.158 104.37 739.25 108.121 739.25 112.356C739.25 116.59 740.218 120.401 742.156 123.789C744.093 127.177 746.636 129.838 749.784 131.774C753.054 133.71 756.565 134.678 760.319 134.678Z" fill="#FAEACC"/>
</svg>
